<?xml version="1.0" encoding="UTF-8"?>
<svg id="Layer_2" xmlns="http://www.w3.org/2000/svg" viewBox="0 0 233.07 106.18">
  <defs>
    <style>
      .cls-1 {
        fill: #fff;
      }

      .cls-2 {
        fill: #b0475d;
      }

      .cls-3 {
        fill: #1a1a1a;
      }

      .cls-4 {
        fill: #df9942;
      }
    </style>
  </defs>
  <g id="fish">
    <g id="fish_15">
      <path class="cls-2" d="M164.21,8.78c-2.41-1.15-4.48.27-8.3.7-1.54.17-3.04.03-6.06-.26-8.3-.8-27.81-5.8-31.6-6.72C104.6-.82,93.69-.18,78.87.73c-13.5.83-19.28,2.69-22.08,3.71-6.54,2.38-13.3,5.56-19.05,11.19-2.34,2.29-3.51,3.44-4.2,5.28-2.24,5.99,2.75,11.37,9.79,23.2.94,1.58,17,28.84,13.46,37.88-.24.62-1.25,2.86-.5,5.26.69,2.2,2.52,3.44,3.81,4.28,5.36,3.49,9.92,5.51,14.02,7.41,3.86,1.78,7.54,3.56,11.92,3.47.47,0,2.95-.08,3.31-1.16.34-1.01-1.47-2.01-1.14-3.54.16-.79.84-1.47,1.54-1.68,1.51-.46,3.23,1.24,4.06,2.01,0,0,1.9,1.75,9.79,5.81,5.96,3.06,12.16,2.32,14.2,2.08,4.14-.49,11.07-1.32,14.23-6.81,3.57-6.2-.32-13.73-.65-14.36-.83-1.56-2.72-3.52-6.47-7.37-6.2-6.37-6.7-6.13-6.95-7.3-1-4.73,7.43-7.99,21.56-21.54,4.65-4.46,8.37-8.06,12.3-13.58,2.81-3.94,3.18-5.29,7.64-11.57,1.44-2.03,2.59-4.26,3.98-6.32,2.06-3.07,3.38-4.76,2.79-6.39-.42-1.14-1.57-1.69-2.03-1.91Z"/>
      <path class="cls-4" d="M.32,62.36c1.41,7.6,7.02,12.37,9.99,14.9,2.88,2.45,7.75,5.8,20,8.81,6.68,1.64,16.51,3.96,30.84,3.34,20.56-.9,36.91-7.29,50.12-12.45,8.85-3.46,17.92-6.3,26.8-9.68,0,0,6.63-2.52,15.74-4.04,4.1-.68,6.83-.84,9.82-.41,4.58.67,7.85,2.46,9.62,3.47,9,5.12,35.13,21.74,40.26,24.74.52.3,1.94,1.12,3.87,1.19,2.24.08,5.18-.83,6.51-2.89.7-1.07,1.39-3.13-2.11-11.56-2.53-6.09-5.11-10.37-5.33-10.74-6.58-10.81-10.17-12.25-9.81-16.28.2-2.3,1.47-2.98,8.41-9.41,0,0,12.47-11.57,17.45-22.86.35-.8.92-2.24.29-3.25-.95-1.5-4.02-1.16-5.57-.95-14.21,1.95-24.47,6.89-24.47,6.89-12.74,6.13-12.81,7.25-21.47,10.66-8.69,3.42-13.13,4.06-17.24,3.9-5.83-.24-10.07-2.07-13.07-3.36-9.88-4.25-19.88-8.21-29.68-12.64-16.94-7.66-32.85-7.46-44.74-7.32-9.6.12-25.34.47-43.02,8.5-16.59,7.53-23.69,16.73-25.27,18.85-3.75,5.04-9.72,13.06-7.95,22.6Z"/>
      <path class="cls-2" d="M50.81,45.86c-.1,2.04,1.16,2.48,2.09,5.2,1.23,3.6.53,7.2.45,7.59-.48,2.35-1.36,3.34-.83,5.12.08.25.5,1.59,1.75,2.5,1.05.76,2.03.76,3.74.93,2.62.27,1.22.37,6.2,1.05,2,.27,3.65.5,5.84.66,4.19.32,6.29.48,7.9-.06,3.22-1.07,4.98-3.81,5.88-5.21,4.51-7.04,1.84-15.44,1.09-17.81-.94-2.95-2.28-7.15-6.08-9.03-2.13-1.05-4.42-1.07-5.52-1.08-1.14-.01-2.04.11-7.21,1.44-2.69.69-4.65,1.23-6.98,1.94-4.53,1.36-5.61,1.89-6.59,2.99-.37.42-1.6,1.81-1.7,3.76Z"/>
      <path class="cls-1" d="M21.18,36.4c-.32.16-1.94,1.01-3.3,2.87-.59.82-1.82,2.5-1.85,4.89-.03,3.16,2.05,5.27,2.54,5.76,2.21,2.23,4.91,2.54,5.86,2.64,1.09.11,3.39.33,5.59-1.09,2.62-1.7,3.23-4.56,3.43-5.48.14-.65,1.05-4.89-1.79-7.96-1.98-2.14-4.6-2.44-5.35-2.52-.93-.11-2.96-.19-5.12.9Z"/>
      <path class="cls-3" d="M21.45,47.59c.34.06,1.49.2,2.59-.49,1.76-1.11,1.74-3.32,1.73-3.51-.01-.4-.12-2.08-1.55-3.12-.19-.14-1.35-.95-2.87-.65-1.38.27-2.11,1.27-2.31,1.56-.12.17-.7,1.01-.73,2.26,0,.36-.02,1.35.63,2.32.89,1.32,2.3,1.59,2.51,1.62Z"/>
    </g>
  </g>
</svg>