<?xml version="1.0" encoding="UTF-8"?>
<svg id="Layer_2" xmlns="http://www.w3.org/2000/svg" viewBox="0 0 98.55 77.37">
  <defs>
    <style>
      .cls-1 {
        fill: #fff;
      }

      .cls-2 {
        fill: #b0475d;
      }

      .cls-3 {
        fill: #c7704c;
      }

      .cls-4 {
        fill: #be3e5c;
      }

      .cls-5 {
        fill: #1a1a1a;
      }
    </style>
  </defs>
  <g id="fish">
    <g id="fish_17">
      <path class="cls-4" d="M19.56,64.75c.57,1.33,1.6,3.28,3.41,5.16,2.27,2.37,4.59,3.41,7.29,4.61,2.4,1.07,5.4,2.42,9.68,2.77,1.53.13,4.85.26,8.85-.83,3.98-1.08,6.51-2.79,9.87-5.07,3.96-2.69,5.97-4.08,7.19-6.73,1.21-2.6.23-3.26,1.2-6.46,1.68-5.58,6.71-10.43,9.41-9.59.73.23,1.32,1.14,2.49,2.95,1.58,2.46,1.41,3.23,2.49,4.8,1.89,2.74,4.77,3.76,5.63,4.06,1.63.56,4.49,1.54,6.55,0,1.73-1.29,1.91-3.64,1.94-3.97.14-1.88-.69-3.71-1.11-4.61-.52-1.14-.84-1.39-.92-2.21-.14-1.4.58-2.55,1.01-3.23,1.39-2.15,2.53-1.81,3.41-3.41.85-1.52.81-3.63-.09-5.26-1.25-2.26-3.7-2.77-4.15-2.86-2.5-.51-4.62.65-6.82,1.84-2.74,1.49-5.16,3.5-5.16,3.5-1.56,1.3-2.08,1.98-2.77,1.84-1.32-.25-1.86-3.97-2.12-5.81-.28-1.97-.21-3.22-.18-3.6.1-1.6.42-2.65.55-3.23.73-3.18-.89-6.47-1.94-8.58-1.6-3.24-3.62-5.13-6.18-7.47-.98-.9-4.28-3.84-9.5-6.73-6.26-3.47-11.76-4.92-14.57-5.53-3.5-.77-6.21-1.36-9.96-1.01-1.87.17-5.83.58-9.96,3.14-2.7,1.67-4.33,3.55-5.72,5.16-1.26,1.46-3.18,3.71-4.61,7.1-1.2,2.83-2.41,5.69-1.84,8.85.79,4.41,4.17,4.62,9.31,12.27,2.25,3.35,3.5,5.25,3.6,8.02.11,3.07-1.28,4.69-3.04,8.85-1.07,2.52-2.4,6.29-3.23,11.25Z"/>
      <path class="cls-3" d="M10.06,22.97c-2.08,2.05-5.48,5.47-7.75,11.07-1.23,3.04-3.12,7.71-1.94,13.37,1.19,5.68,4.8,9.19,7.47,11.71,1.69,1.6,6.55,5.85,16.23,8.67,6.39,1.86,22.24,5.23,39.29-2.21,7.2-3.15,16.8-7.34,18.81-16.14,1.55-6.76-2.12-13.03-3.78-15.86-4.02-6.87-9.69-10.12-15.22-13.28-3.79-2.17-12.17-6.84-23.98-7.47-4.59-.24-11.27-.52-18.72,2.86-1.09.5-5.74,2.68-10.42,7.29Z"/>
      <path class="cls-2" d="M31.17,27.86c-.8.51-.83,1.72-.83,1.94,0,1.15.66,1.86,1.38,2.95,0,0,1.12,1.69,1.91,4,.92,2.7.33,5.24.03,6.52-.76,3.24-2.49,6.18-2.49,6.18-.77,1.31-1.51,2.25-1.2,3.32.25.88,1.13,1.52,1.94,1.75,2.24.63,4.61-1.75,5.81-2.95,2.51-2.52,3.51-5.33,3.87-6.55.44-1.47,1.51-5.07,0-9.13-1.09-2.91-2.97-4.63-3.87-5.44-.21-.19-1.65-1.45-3.87-2.31-1.8-.69-2.39-.46-2.67-.28Z"/>
      <path class="cls-2" d="M46.67,36.68s.47,1.23.8,2.95c.2,1.06.5,2.62.06,4.37-.24.95-.69,1.95-1.6,3.93-.37.82-.66,1.38-.43,1.97.28.72,1.18,1.09,1.84,1.17,1.79.22,3.3-1.48,4.18-2.46,1.71-1.92,2.26-3.95,2.4-4.49.21-.83.79-3.59-.49-6.64-.46-1.11-1.54-3.14-3.69-4.43-.66-.4-2.09-1.25-3.01-.68-.68.42-.77,1.41-.8,1.66-.09.92.29,1.48.74,2.64Z"/>
      <path class="cls-2" d="M57.35,36.25c.02.53.34.73.8,1.43.76,1.17.97,2.31,1.1,3.04.18,1.02.35,1.92.02,2.97-.37,1.2-1.04,1.49-1.38,3.03-.19.88-.07,1.21.06,1.41.45.68,1.55.6,1.74.58.22-.02,1.09-.12,2.09-1.17,1.98-2.06,1.88-5.06,1.84-5.72-.1-1.81-.76-3.12-1.23-4.06-.45-.89-.91-1.53-1.48-2.09-.73-.72-1.44-1.41-2.26-1.23-.76.17-1.35,1.04-1.32,1.78Z"/>
      <path class="cls-1" d="M6.78,30.66c-1.1,1.03-1.41,2.41-1.6,3.23-.19.85-.45,1.97.03,3.23.63,1.66,2.09,2.41,2.55,2.64.24.12,1.55.77,3.32.58.61-.06,2.41-.25,3.69-1.75,1.49-1.75,1.14-3.96,1.05-4.55-.09-.57-.37-2.31-1.84-3.54-2.05-1.7-5.39-1.53-7.19.15Z"/>
      <path class="cls-5" d="M6.15,37c.38.69,1.06.95,1.24,1.01.86.31,2.11.22,2.86-.74.66-.84.66-2.02.09-2.86-.73-1.07-2.3-1.4-3.41-.65-1.11.75-1.33,2.25-.78,3.23Z"/>
    </g>
  </g>
</svg>