<?xml version="1.0" encoding="UTF-8"?>
<svg id="Layer_2" xmlns="http://www.w3.org/2000/svg" viewBox="0 0 224.66 131.91">
  <defs>
    <style>
      .cls-1 {
        fill: #fff;
      }

      .cls-2 {
        fill: #b0475d;
      }

      .cls-3 {
        fill: #1a1a1a;
      }

      .cls-4 {
        fill: #df9942;
      }
    </style>
  </defs>
  <g id="fish">
    <g id="fish_7">
      <path class="cls-4" d="M87.42,108.16c.04,3,.34,4.12.86,8.79.63,5.62.63,7.84.07,10.33-.43,1.91-.71,3.09-1.74,3.9-1.65,1.29-4.24.85-9.2-1.06-9.48-3.65-15.86-8.14-16.73-8.76-2.88-2.05-5.82-4.18-9.18-7.66-4.43-4.59-8.33-8.64-8.78-13.54-.46-5.13,3.08-8.76,7.36-14.13,7.59-9.51,25.61-32.11,21.07-45.66-.65-1.95-2.37-5.5-1.72-10.23.46-3.33,1.9-5.88,3.28-8.34.42-.74,2.23-3.9,6.4-8.42,3.18-3.45,5.66-6.13,9.69-8.68,4.24-2.68,8.98-5.67,14.2-4.39,3.42.84,6.14,3.3,6.47,3.6,2.75,2.53,4.01,4.76,4.01,4.76.74,1.31.94,2.11,1.9,2.71.96.6,2.03.58,4.23.26,4.61-.67,4.8-1.32,6.57-1.26,2.49.08,5.03,1.45,6.5,3.32,1.72,2.18,2.08,5.15,2.39,7.65.04.31.23,1.95.83,4.02.37,1.28.57,1.93.98,2.36,1.21,1.29,2.81.42,4.98,1.16,2.28.77,3.51,2.75,4.7,4.65,1.78,2.85,2.1,5.54,2.18,6.37.32,3.51-.93,4.72-.93,7,0,3.55,3.05,6.08,8.52,10.43,16.6,13.23,19.07,14.3,22.18,13.76.47-.08.14-.06,7.25-3.67,1.04-.53,6.61-3.35,13.42-6.57,2.83-1.34,5.5-2.57,9.08-3.9,5.46-2.02,7.09-2.06,8.58-1.68,2.54.65,4.91,2.56,6,5.17.8,1.91,1.39,5.3-.37,7.17-.87.92-2.47,1.63-3.95,1.78-.95.09-2.01-.03-3.29.59-.53.25-.88.53-1.07.96-.32.73.06,1.47.08,1.51.14.26.49.74,2.14,1.19,1.59.43,1.95.17,3.09.47,1.49.4,2.46,1.28,2.83,1.61,1.66,1.52,2.1,3.39,2.21,3.89.6,2.88-.77,5.11-1.05,5.55-.21.32-1.45,2.2-3.87,3.03-1.85.64-3.56.38-4.08.28-1.07-.19-1.71-.54-3.56-.8-1.07-.15-1.68-.14-2.14.25-.38.32-.64.9-.52,1.42.13.57.67.87,2.1,1.55,2.42,1.15,2.39,1.02,2.74,1.26,2.03,1.41,1.8,5,1.75,5.74-.02.38-.31,4.07-2.64,5.91-3.94,3.1-11.49-.85-13.35-1.82-10.01-5.25-9.73-12.33-19.87-16.85-.83-.37-7.67-3.35-9.71-1.06-1.04,1.18-.09,2.91.1,7.89.04.98.19,4.88-.45,7.81-1,4.6-4.09,7.46-7.53,10.65-1.28,1.18-6.86,6.2-16.1,9.21-4.71,1.53-8.64,2.81-13.54,1.71-.92-.21-4.07-.99-8.83-4.64-8.55-6.56-7.4-10.97-13.21-14.81-8.12-5.36-20.73-3.58-23,1.03-.4.8-.37,2.28-.33,5.24Z"/>
      <path class="cls-2" d="M175.02,62.93c3.98,3.21,5.94,5.03,7.8,7.75,1.83,2.68,4.59,6.74,3.67,10.86-.81,3.64-4.12,5.74-7.52,7.71-14.23,8.26-26.67,12.41-26.67,12.41-7.94,2.64-13.91,4.63-22.66,6.67-7.45,1.73-16.31,3.75-28.08,4.5-16.76,1.06-29.43-1.1-32.15-1.59-11.86-2.11-20.15-5.35-29.03-8.82-15.3-5.98-22.63-10.99-24.9-12.59C7.17,83.95.27,79.08,0,72.04c-.21-5.69,4.03-10,8.99-14.9,4.77-4.71,11.59-9.97,30.07-17.64,11.96-4.96,19.05-7.9,29.79-10.27,10.38-2.29,22.16-4.88,37.18-2.76,17.16,2.42,29.69,9.74,36.3,13.59,4.09,2.39,2.22,1.66,20.34,13.62,0,0,4.86,3.21,12.34,9.24Z"/>
      <path class="cls-4" d="M80.41,65c2.12,1.5,2.89,3.72,3.43,5.3,1.48,4.27.48,8.05-.11,10.28-.76,2.89-1.66,6.27-4.8,8.56-.59.43-2.44,1.74-5.09,1.96-3.47.29-6.04-1.49-8.52-3.21-3.92-2.72-5.81-5.95-6.92-7.9-1.47-2.57-2.39-4.25-1.99-6.31.4-2.04,1.87-3.27,3.67-4.74,1.44-1.17,4.99-3.74,10.68-4.7,3.68-.62,6.91-1.17,9.65.77Z"/>
      <path class="cls-1" d="M48.07,50.77c1.33,2.55,1.59,4.79,1.65,5.33.17,1.66.23,5.21-1.94,8.72-.29.47-1.6,2.52-4.16,4.23-.98.65-4.65,3.03-9.71,2.49-1.35-.14-6.19-.86-9.53-5.13-2.83-3.61-2.85-7.55-2.84-8.92.01-1.37.09-4.76,2.37-7.95,3.23-4.52,8.46-5.27,10.64-5.59,2.06-.3,4.76-.68,7.68.68,3.49,1.63,5.11,4.74,5.84,6.14Z"/>
      <path class="cls-3" d="M40.56,51.32c1.49,1.93,1.7,3.92,1.82,5.05.16,1.48.41,3.78-1,5.99-1.58,2.48-4.19,3.18-5.14,3.43-.96.26-3.43.88-6.06-.35-2.86-1.34-3.95-3.94-4.34-4.89-.38-.9-1.7-4.07-.18-7.38,1.26-2.75,3.71-3.88,4.48-4.24.85-.4,2.87-1.29,5.44-.78,2.62.53,4.25,2.22,4.99,3.18Z"/>
    </g>
  </g>
</svg>