<?xml version="1.0" encoding="UTF-8"?>
<svg id="Layer_2" xmlns="http://www.w3.org/2000/svg" viewBox="0 0 108.62 72.63">
  <defs>
    <style>
      .cls-1 {
        fill: #fff;
      }

      .cls-2 {
        fill: #b0475d;
      }

      .cls-3 {
        fill: #c7704c;
      }

      .cls-4 {
        fill: #df9942;
      }
    </style>
  </defs>
  <g id="fish">
    <g id="fish_10">
      <path class="cls-4" d="M59.52,61.65c1.43,1.37,2.98,1.78,5.48,2.45,3.13.83,5.65.78,7.29.74,2.62-.07,3.94-.11,5.63-.83.66-.28,2.9-1.28,4.52-3.69,1.31-1.95,1.54-3.82,1.75-5.72.39-3.52-.18-6.3-.37-7.19-2.95-13.76-5.02-16.91-6.46-24.9,0,0-.5-2.77-2.03-6.64-1.64-4.15-2.78-5.12-3.69-5.63-1.8-1.01-3.87-.87-4.43-.83-1.64.11-1.81.6-3.69.83-.75.09-2.69.33-4.61-.37-1.22-.44-1.77-1.02-4.24-3.41-2.8-2.71-4.2-4.07-4.61-4.33C46.76-.04,43.29-.01,42.68,0c-.65.01-3.66.13-6.64,2.03-1.5.95-2.66,2.3-4.98,4.98-1.55,1.79-2.63,3.23-2.77,3.41-7.37,9.95,3.78,54.5,3.78,54.5.07.28.39,1.52,1.2,2.95.54.95,2.05,3.54,4.89,4.43.45.14,2.27.71,3.04-.09.25-.25.24-.49.83-1.38.43-.65.65-.97.92-1.01.45-.07.69.46,1.57,1.11.33.24,1,.74,1.84.92.34.08,1.79.34,2.77-.55.84-.77.83-1.94.83-2.49,0-1.32-.54-1.84-1.48-4.06-.83-1.96-1.24-2.94-1.11-3.78.35-2.2,2.98-3.36,3.32-3.5,1.98-.84,4.41-.65,6.09.55,1.53,1.09,1.1,2.08,2.72,3.64Z"/>
      <path class="cls-3" d="M18.46,11.99c-4.47,2.05-7.36,5.05-9.04,6.82-1.06,1.12-4.22,4.62-6.64,10.14-.93,2.12-2.16,4.93-2.58,8.85-.24,2.26-.75,7.61,2.03,13.1,2.92,5.76,7.81,8.43,10.7,9.96,5.77,3.05,10.99,3.28,19.55,3.69,2.54.12,7.26.24,13.16-.37,4.08-.42,9.62-1.02,16.32-3.32,3.25-1.11,6.17-2.12,9.78-4.24,1.38-.82,7.22-4.36,12.45-6.36.7-.27,2.15-.8,3.63-.28,1.24.44,1.7,1.3,2.95,2.95,1.11,1.46,3.28,4.33,6.46,5.72.99.43,2.26.93,3.69.55.86-.23,2.16-.88,4.03-4.33,1.95-3.62,2.63-6.83,2.8-7.65.41-2.02,1.23-6.84.74-13.83-.49-7.01-1.78-10.03-3.14-12.17-1.89-2.98-3.41-3.26-3.87-3.32-1.95-.25-3.19,1.39-6.12,3.41-3.12,2.15-6.35,3.48-8.21,3.97-3.93,1.02-7.32-.32-12.6-2.58-12.98-5.55-13.37-6.37-18.44-8.3-10.48-3.98-18.95-4.3-23.24-4.43-8.91-.26-12.77,1.29-14.39,2.03Z"/>
      <path class="cls-2" d="M31.8,9.94c-.97,2.62-2.35,6.45-3.88,11.18-.85,2.64-1.28,3.96-1.57,5.16-.56,2.31-1.77,7.54-.92,14.2.6,4.74,1.99,8.04,3.41,11.44,1.39,3.3,3.64,7.82,7.29,12.73,1.25,0,2.54-.02,3.86-.07,3.05-.12,5.92-.37,8.59-.72-.41-.37-1-.92-1.67-1.61-.61-.63-2.54-2.69-4.98-6.73-1.21-2.01-2.7-4.5-4.06-8.12-.66-1.77-1.71-4.6-2.21-8.48-.47-3.6-.25-6.35-.09-8.21.12-1.37.62-6.5,3.04-12.82,1.15-3,2.4-5.41,3.42-7.18-2.04-.29-4.23-.52-6.55-.65-1.27-.07-2.5-.11-3.69-.13Z"/>
      <path class="cls-2" d="M65.22,18.55c-2.1,3.29-3.25,6.31-3.9,8.47-.96,3.2-1.21,5.77-1.38,7.65-.19,2.11-.45,5.14.09,9.04.32,2.29.87,6.03,3.14,10.24,1.31,2.44,2.77,4.24,3.87,5.44,2.76-1.61,5.52-3.22,8.28-4.84-.29-.45-.7-1.1-1.18-1.89-.48-.81-2.13-3.59-3.04-5.9-1.42-3.59-1.35-6.82-1.29-9.68.03-1.56.11-4.31,1.11-7.75.86-2.98,2.08-5.3,3.06-6.88-2.91-1.3-5.83-2.6-8.74-3.89Z"/>
      <path id="eye" class="cls-1" d="M5.7,37.17c.56.13,1.03-.11,1.29-.25.92-.48.87-1.1,1.78-1.97.29-.28.94-.9,1.94-1.14.97-.23,1.8,0,2.52.22.46.13,1.06.32,1.72.8.32.23.98.72,1.38,1.57.34.73.18,1.04.65,1.91.24.44.39.72.71.89.65.35,1.66.1,2.12-.49.57-.73.19-1.81-.15-2.8-.56-1.59-1.51-2.59-1.78-2.86-1.74-1.75-3.81-2.16-4.61-2.31-.92-.17-2.51-.45-4.24.25-.94.37-1.6.9-2.15,1.35-1.24,1-1.71,1.83-1.81,2.03-.35.64-.72,1.32-.43,1.97.29.64,1.04.82,1.08.83Z"/>
    </g>
  </g>
</svg>