<?xml version="1.0" encoding="UTF-8"?>
<svg id="Layer_2" xmlns="http://www.w3.org/2000/svg" xmlns:xlink="http://www.w3.org/1999/xlink" viewBox="0 0 514.14 432.76">
  <defs>
    <style>
      .cls-1 {
        fill: #7e416d;
      }

      .cls-2 {
        fill: url(#linear-gradient-8);
      }

      .cls-3 {
        fill: url(#linear-gradient-7);
      }

      .cls-4 {
        fill: url(#linear-gradient-5);
      }

      .cls-5 {
        fill: url(#linear-gradient-6);
      }

      .cls-6 {
        fill: url(#linear-gradient-9);
      }

      .cls-7 {
        fill: url(#linear-gradient-4);
      }

      .cls-8 {
        fill: url(#linear-gradient-3);
      }

      .cls-9 {
        fill: url(#linear-gradient-2);
      }

      .cls-10 {
        fill: url(#linear-gradient);
      }

      .cls-11 {
        fill: #eb9527;
      }

      .cls-12 {
        fill: #606060;
      }

      .cls-13 {
        fill: #6c4829;
      }

      .cls-14 {
        fill: #db8528;
      }

      .cls-15 {
        fill: url(#linear-gradient-10);
      }

      .cls-16 {
        fill: url(#linear-gradient-11);
      }

      .cls-17 {
        fill: url(#linear-gradient-12);
      }

      .cls-18 {
        fill: #6d3961;
      }

      .cls-19 {
        fill: #7b5533;
      }

      .cls-20 {
        fill: #f2f2f2;
      }

      .cls-21 {
        fill: #d6ae92;
      }

      .cls-22 {
        fill: #6b395f;
      }

      .cls-23 {
        fill: #ad856a;
      }

      .cls-24 {
        fill: #1a1a1a;
      }
    </style>
    <linearGradient id="linear-gradient" x1="112.45" y1="264.34" x2="150.78" y2="289.7" gradientTransform="translate(-30.53 17.71) rotate(-3.16)" gradientUnits="userSpaceOnUse">
      <stop offset=".25" stop-color="#d6ae92"/>
      <stop offset=".38" stop-color="#d1a88b"/>
      <stop offset=".44" stop-color="#cea386"/>
    </linearGradient>
    <linearGradient id="linear-gradient-2" x1="131.87" y1="294.75" x2="125.65" y2="307.77" gradientTransform="translate(-30.53 17.71) rotate(-3.16)" gradientUnits="userSpaceOnUse">
      <stop offset=".12" stop-color="#d6ae92"/>
      <stop offset=".51" stop-color="#cea386"/>
    </linearGradient>
    <linearGradient id="linear-gradient-3" x1="141.11" y1="284.93" x2="133.97" y2="308.57" gradientTransform="translate(-30.53 17.71) rotate(-3.16)" gradientUnits="userSpaceOnUse">
      <stop offset=".27" stop-color="#d6ae92"/>
      <stop offset=".4" stop-color="#d1a88b"/>
      <stop offset=".46" stop-color="#cea386"/>
    </linearGradient>
    <linearGradient id="linear-gradient-4" x1="144.57" y1="279.69" x2="137.54" y2="307.42" xlink:href="#linear-gradient"/>
    <linearGradient id="linear-gradient-5" x1="148.75" y1="268.77" x2="142.98" y2="293.91" gradientTransform="translate(-30.53 17.71) rotate(-3.16)" gradientUnits="userSpaceOnUse">
      <stop offset=".27" stop-color="#d6ae92"/>
      <stop offset=".42" stop-color="#d1a88b"/>
      <stop offset=".49" stop-color="#cea386"/>
    </linearGradient>
    <linearGradient id="linear-gradient-6" x1="143.57" y1="264" x2="137.28" y2="269.38" gradientTransform="translate(-30.53 17.71) rotate(-3.16)" gradientUnits="userSpaceOnUse">
      <stop offset="0" stop-color="#d6ae92"/>
      <stop offset=".31" stop-color="#d1a88b"/>
      <stop offset=".46" stop-color="#cea386"/>
    </linearGradient>
    <linearGradient id="linear-gradient-7" x1="282.06" y1="243.2" x2="299.28" y2="237.53" gradientUnits="userSpaceOnUse">
      <stop offset=".05" stop-color="#d6ae92"/>
      <stop offset=".44" stop-color="#d1a88b"/>
      <stop offset=".64" stop-color="#cea386"/>
    </linearGradient>
    <linearGradient id="linear-gradient-8" x1="328.56" y1="208.77" x2="342.26" y2="238.81" gradientUnits="userSpaceOnUse">
      <stop offset=".31" stop-color="#d6ae92"/>
      <stop offset=".37" stop-color="#d1a88b"/>
      <stop offset=".4" stop-color="#cea386"/>
    </linearGradient>
    <linearGradient id="linear-gradient-9" x1="330.38" y1="212.47" x2="348.76" y2="240.77" xlink:href="#linear-gradient-8"/>
    <linearGradient id="linear-gradient-10" x1="328.87" y1="219.94" x2="343.92" y2="244.5" xlink:href="#linear-gradient-8"/>
    <linearGradient id="linear-gradient-11" x1="309.47" y1="228.46" x2="334.34" y2="266.84" gradientUnits="userSpaceOnUse">
      <stop offset=".28" stop-color="#d6ae92"/>
      <stop offset=".37" stop-color="#d1a88b"/>
      <stop offset=".41" stop-color="#cea386"/>
    </linearGradient>
    <linearGradient id="linear-gradient-12" x1="178.67" y1="101.06" x2="194.63" y2="101.06" gradientUnits="userSpaceOnUse">
      <stop offset=".18" stop-color="#d6ae92"/>
      <stop offset=".52" stop-color="#cea386"/>
    </linearGradient>
  </defs>
  <g id="boat">
    <g>
      <g>
        <path class="cls-18" d="M240.96,344.39c-.84-6.7-1.96-13.7-3.52-21.11-2.25-10.71-5.1-19.65-11.16-37.45-8.24-24.21-11.87-28.82-16.8-30.88-9.29-3.88-13.86,5.18-31.01,6.57-22.67,1.84-32.88-12.52-43.89-5.78-2.64,1.62-5.59,8.58-11.49,22.51-4.1,9.69-7.31,17.33-10.36,28.29-2.9,10.42-4.25,18.73-4.78,22.31-.53,3.6-1.12,8.32-1.45,15.53h134.45Z"/>
        <g id="hand_v">
          <path class="cls-10" d="M112.75,272.17c-2.42-.67-9.41,7.26-8.28,15.55.06.41,1.07,7.27,5.07,8.18,3.69.84,7.68-3.89,9.09-7.71,1.53-4.14.68-9.02-1.26-11.13-.28-.3-.85-.84-1.97-2.05-2.2-2.38-2.22-2.71-2.66-2.83Z"/>
          <path class="cls-21" d="M118.03,276.05c-1.5,2.32-1.45,2.76-3.68,6.55-1.2,2.04-1.22,1.78-2.3,3.68-.68,1.21-1.36,2.67-2.68,5.53-1.26,2.74-1.41,3.17-1.4,3.89,0,.41.1,2.51,1.82,3.87,1.36,1.07,3.16,1.23,4.52.79.97-.31,1.4-.82,4.29-4.93,2.68-3.82,3.24-4.71,3.89-6.08.56-1.18.99-2.09,1.35-3.44.39-1.49.25-1.85.26-7.42,0-2.41-.86-2.7-.86-4.71,0-2.21.6-3.31.21-3.53-.7-.4-3.47,2.75-5.44,5.8Z"/>
          <path class="cls-9" d="M108.57,294.47c-1.1.37-.49,5-.33,6.17.18,1.33.58,2.81,1.38,5.79.79,2.94.96,3.48,1.38,4.15.89,1.41,1.99,2.22,3.33,3.21,1.79,1.32,3.29,1.92,3.69,2.07.2.08,1,.38,2.09.64.68.16.65.11,2.88.43,1.45.21,1.73.27,2.12.08.75-.38.99-1.23,1.07-1.5.43-1.5-.55-2.85-.75-3.13-.08-.12-1.17-1.58-2.95-1.82-1.03-.14-1.24.27-2.05-.01-.97-.34-.82-.98-2.04-1.78-1.07-.7-1.76-.59-2.07-1.26-.24-.51-.06-1.04,0-1.31.42-1.7-1.14-3.6-3.42-6.57-3.45-4.51-3.84-5.31-4.32-5.15Z"/>
          <path class="cls-8" d="M121.41,306.24c2.74,1.31,2.62,1.36,4.4,2.16,1.12.5,2.27.93,4.57,1.77,2.22.81,3.1,1.08,4.18.78.35-.1,1.26-.36,1.81-1.21.63-.96.4-2.08.29-2.66-.11-.54-.22-1.12-.67-1.6-.72-.78-1.72-.65-2.98-.89-.64-.12-.66-.21-3.7-1.72-3.75-1.86-3.79-1.65-5.43-2.63-.39-.23-1.3-.83-3.14-2.04-2.9-1.91-2.07-1.43-2.72-1.82-1.5-.92-1.96-1.06-2.48-1.78-.27-.38-.4-.7-.82-.92-.58-.31-1.34-.23-1.83,0-1.45.72-1.87,3.68-.93,5.77.41.91.99,1.46,1.99,2.4.4.38,1.32,1.2,3.22,2.31,1.31.76,1.66.83,4.25,2.07Z"/>
          <path class="cls-7" d="M112.79,293.84c.23.2.84-.46,1.58-.18.53.2.77.76.87.96.4.83,1.22,1.44,5.11,3.76,2.79,1.66,4.18,2.49,5.21,3.03,0,0,3.21,1.68,9.99,4.21.17.06.82.3,1.71.48,1.05.21,1.81.22,2.41.16.6-.06.9-.09,1.23-.31.67-.44.86-1.22.93-1.49.36-1.52-.57-2.92-.86-3.32-.56-.76-1.27-1.28-3.69-2.34-2.46-1.08-2.61-.94-4.18-1.64-2.7-1.22-2.52-1.76-6.26-3.74-1.65-.87-2.1-.98-2.98-1.71-.59-.48-.82-.79-2.75-2.73-1.24-1.25-1.5-1.48-1.96-1.57-1.07-.22-2.04.53-2.91,1.22-2.54,2-3.89,4.87-3.46,5.24Z"/>
          <path class="cls-4" d="M117.92,285.62c.64,1.8,2.65,1.27,8.84,4.18,4.85,2.28,7.86,3.89,7.86,3.89s.71.38,4.9,1.75c.44.14,1.37.43,2.46.2.43-.09,1.11-.24,1.59-.81.82-.99.37-2.45.28-2.76-.33-1.09-1.07-1.78-1.71-2.31-2.64-2.16-4.38-2.1-8.07-4.27-1-.59-.74-.51-2.49-1.59-1.55-.96-2.2-1.29-5.16-2.94-3.5-1.95-3.63-2.07-4.1-2.03-2.54.2-5.28,4.21-4.39,6.68Z"/>
          <path class="cls-5" d="M122.32,276.38c.36.63.73,1.02,1.18,1.48,1.03,1.07,1.76,1.83,2.9,2,.19.03,1.5.21,2.51-.67.62-.54.83-1.21.92-1.54.21-.72.13-1.24-.51-3.96-.48-2.03-.55-2.24-.77-2.55-.16-.23-1.04-1.52-2.69-1.73-1.85-.23-3.11,1.08-3.29,1.29-.79.86-.97,1.82-1.03,2.17-.29,1.65.47,2.97.78,3.5Z"/>
        </g>
        <g id="hand_r">
          <path class="cls-3" d="M288.82,230.77c-.69.08-1.42.36-2.88.9-2.6.97-3.9,1.46-4.38,2.12-.52.73-.75,2.01,2.92,9.43,3.22,6.51,4.37,7.5,5.58,7.57.36.02.66-.05,3.19-1.46,3.14-1.76,4.7-2.63,5.05-3.05,2.36-2.9.74-9.19-2.79-12.62-.55-.53-3.39-3.29-6.68-2.89Z"/>
          <path class="cls-21" d="M291.28,225.03c-.67,1.06-1.56,2.47-2.14,4.53-.33,1.16-.66,2.34-.55,3.88.21,2.75,1.73,4.98,2.04,5.43.87,1.24,1.62,1.76,1.74,2.99.07.68-.11,1.08.1,1.99.2.88.58,1.49.85,1.89.59.91,1.31,2.03,2.39,2.24.91.18,1.48-.42,2.74-1.05.95-.48,1.58-.61,4.63-1.2,9.89-1.89,11.07-1.93,12.9-3.24,2.18-1.55,3.44-3.59,3.88-4.38,1.05-1.84,1.41-3.47,1.59-4.33.25-1.15.66-3.15.2-5.68-.21-1.17-.62-2.09-1.39-3.93-.66-1.58-.99-2.37-1.28-2.65-1-.97-1.96-.51-7.57-.74-2.66-.11-2.94-.23-4.51-.2-.38,0-1.13.03-2.13-.08-.42-.04-1.17-.13-2.09-.37-1.55-.41-1.66-.8-2.99-1.05-.77-.15-1.37-.26-2.09-.1-1.01.22-1.66.83-2.29,1.44-2,1.97-3,2.95-4.03,4.58Z"/>
          <path class="cls-21" d="M306.43,221.29c1.24-1.34.24-2.38,1.73-4.52.88-1.27,1.36-1.08,3.49-3.19,1.31-1.29,2.01-1.99,2.69-3.19,0,0,1.33-2.34,1.16-5.15-.04-.7-.18-1.3-.63-1.76-.42-.43-.94-.53-1.1-.56-1.05-.2-1.91.45-2.06.56-.32.24-.65.75-1.29,1.76-.31.48-.51.82-.6.96-.59.97-1.19,1.58-2.22,2.66-.98,1.02-1.94,2.06-2.92,3.09-2.1,2.21-2.05,2.17-2.39,2.49-1.49,1.41-1.7,1.33-3.29,2.82-1.34,1.26-1.16,1.29-2.36,2.36-1.54,1.38-2.21,1.66-2.12,2.06.15.75,2.75.8,4.42.83,4.17.08,6.26.12,7.5-1.23Z"/>
          <path class="cls-2" d="M316.84,221.18c.11-.5,1.38-.28,4.99-.99.93-.18,1.65-.35,2.79-.43.4-.03.96-.05,2.08-.08.71-.02,1.3-.03,1.7-.04.29-.16.71-.39,1.23-.67,1.76-.95,2.77-1.51,3.85-2.03,1.68-.81,2.98-1.29,4.45-1.83,2.32-.85,3.31-1.06,3.85-1.16.46-.09,1.32-.23,2.42-.26,1.23-.04,2.05.08,2.66.23.78.18,1.24.4,1.63.76.26.24.45.52.5.63.66,1.63-13.66,8.66-22.44,10.69-1.23.28-4.77,1.03-5.98-.53-.21-.27-.16-.32-.46-.86-1.35-2.37-3.4-2.79-3.26-3.43Z"/>
          <path class="cls-6" d="M320.08,224.69c.59.13,1.46.28,2.51.25.26,0,1.29-.04,3.07-.55,1.01-.29,1.47-.5,3.24-1.2,2.95-1.17,2.84-1.04,3.82-1.48,1.77-.79,2.64-1.44,4.05-2.29.53-.32,3.76-2.26,7.97-3.75,0,0,2.93-1.04,7.07-.95.4,0,1.18.04,1.64.6.48.57.52,1.55.08,2.11-.35.44-.75.29-1.63.75-.54.28-.53.42-1.45,1.17-1.24,1.02-2.26,1.6-2.49,1.73-.84.47-1.51.73-1.73.81-2.72,1.08-7.95,4.89-13.6,7.67-7.33,3.61-10.07,2.88-10.76,2.29-.63-.54-.8-1.2-.8-1.2-.2-.79.19-1.42.35-1.94.24-.8.15-2.05-1.34-4.03Z"/>
          <path class="cls-15" d="M321.55,231.18c.35-.47.79-.57,1.69-.87,1.89-.64,1.36-.69,3.39-1.39,1.36-.47,3.27-1.03,5.66-1.43.43-.61,1.1-1.45,2.08-2.3,1.09-.94,2.05-1.44,3.36-2.12,1.26-.65,2.27-1.04,4.28-1.83.25-.1,1.16-.45,2.37-.82,1.92-.59,2.66-.64,3.35-.37.23.09.76.3,1.05.85.05.1.28.52.15,1-.07.26-.24.52-.7.85-.86.61-1.44.54-2.34.95-.32.14-.71.45-1.49,1.05-1.07.82-1.43,1.17-2.79,2.29-1.71,1.42-1.82,1.43-2.34,1.99-.5.53-.69.83-1.34,1.49,0,0-.7.71-1.54,1.39-1.96,1.59-5.19,2.44-9.26,4.33-.12.06-4,1.86-6.08,1.54-.69-.1-.82-.39-.85-.45-.18-.44.48-.85.8-1.84.15-.46.03-.46.1-1.79.07-1.37.12-2.06.46-2.51Z"/>
          <path class="cls-16" d="M293.79,238.43c-1.26,1.6-1.37,2.99-1.39,3.29-.12,1.79.7,3.82,2.29,4.78.77.47,1.66.65,4.7.3,2.67-.31,4.23-.72,6.46-1.2,4.17-.89,4.36-.67,8.93-1.64,1.59-.34,2.75-.63,5.08-1.2,7.67-1.88,8.98-2.52,10.19-3.64,1.19-1.1,1-1.48,2.59-2.89.76-.67,2.14-1.77,4.08-3.39,1.03-.86,1.45-1.23,1.39-1.69-.1-.77-1.49-1.3-2.59-1.39-.46-.04-1.29-.03-4.07,1.36-1.8.9-3.19,1.77-4.13,2.39-1.29.85-2.33,1.62-3.05,2.18-.56.04-1.31.08-2.19.11-.88.03-2.42.06-4.48,0-2.13-.07-3.76-.2-4.5-.27-9.46-.81-9.47-1.19-11.55-.9-1.59.22-5.43.81-7.77,3.78Z"/>
        </g>
        <g id="overkrop">
          <g id="arm_v">
            <path class="cls-18" d="M68.78,218.75c-4.09,3.96-4.93,9.07-5.31,11.42-.74,4.53-.04,8.35.8,11.42,2.14,7.89,6.4,15.83,13.81,24.97,2.79,3.44,5.06,5.9,7.02,7.85,3.67,3.64,7.99,7.59,9.31,8.77,4.6,4.12,5.47,4.59,6.92,6.74,2,2.94,2.61,5.36,3.65,5.25.92-.1.99-2.04,2.32-5.58.49-1.29,2.09-5.46,5.06-9.01,3.09-3.69,4.47-2.92,5.09-4.82,1.36-4.16-5.86-6.71-9.37-16.63-1.22-3.44-1.65-7.37-2.39-10.89-.72-3.43-.57-4.92-.89-7.65-.99-8.48-1.48-12.72-3.74-16.53-3.49-5.88-10.51-9.66-17.41-10.08-1.83-.11-9.35-.57-14.87,4.78Z"/>
            <path class="cls-18" d="M100.65,164.3c-2.66,3.84-6.63,10.8-9.56,19.12-1.64,4.66-2.27,7.79-5.05,12.75-2.4,4.28-4.99,7.41-7.44,10.36-3.94,4.75-6.48,6.91-9.83,12.22-2.97,4.72-2.9,6.07-2.66,6.91,1.27,4.36,10.2,5.18,11.69,5.31,7.58.69,9.51-2.48,18.33-2.12,1.02.04,2.43.01,4.2-.54,2.83-.89,4.7-2.65,7.57-5.98,5.54-6.42,6.55-9.08,10.28-12.87,2.79-2.83,4.19-4.24,4.23-4.28,2.34-2.32,2.42-2.32,2.94-3.15,3.84-6.07,3.8-12.6,3.72-16.73-.17-8.78-2.75-9.43-3.72-18.59-1.31-12.31,2.67-17.52,0-19.39-4.01-2.82-17.13,6.08-24.7,17Z"/>
          </g>
          <g id="arm_h">
            <path class="cls-18" d="M197.33,150.31c2.56-2.03,7.03-1.19,9.83.4,3.57,2.03,4.89,5.52,7.44,13.28,2.2,6.69,3.3,10.43,3.95,12.75.19.68.42,2.22,1.18,4.14,1.14,2.86,2.61,4.77,3.37,5.74,5.49,6.99,7.65,9.24,10.19,13.02,2.31,3.43,5.35,7.95,3.98,9.69-1.39,1.78-6-1.16-9.28,1.29-1.52,1.13-1.62,2.92-2.51,5.15-2.45,6.18-5.86,14.76-2.76,22.45,1.47,3.66,3.93,5.47,3.66,5.71-.45.4-6.88-5.28-11.53-11.29-.47-.61-3.26-4.24-4.98-6.47-.91-1.19-1.65-2.14-2.71-3.49-1.55-1.95-1.71-2.07-2.07-2.59-1.63-2.32-1.98-4.75-2.19-6.19-2.24-15.19-3.61-30.49-5.84-45.68-1.37-9.34-3.04-15.31.27-17.93Z"/>
            <path class="cls-18" d="M219.31,205.54c-4.5,2.63-4.56,9.77-4.78,14.34-.13,2.73-.32,7.81,2.39,13.55,1.04,2.2,3.59,6.79,8.68,10.25,1.43.97,2.71,1.62,4.07,2.23,5.65,2.54,12.3,4.13,25.35,5.73,5.35.66,13.37,1.31,14.62,1.41,8.33.69,8.33.51,11.23.98,6.97,1.14,10.09,2.74,11.02,1.46.78-1.07-1.08-2.63-3.39-8.3-1.86-4.57-3.22-7.91-2.59-11.89.43-2.72,1.46-3.61.8-4.71-1.19-1.97-5.29-.44-10.56-1.13-2.65-.35-5.44-1.79-11.02-4.65-1.4-.72-8.63-4.47-14.92-9.37-.52-.41-1.19-.94-2.22-1.67-2.16-1.52-4.17-2.67-8.2-4.7-3.41-1.72-5.11-2.58-5.84-2.86-2.73-1.03-6.33-2.35-10.76-1.73-1.72.24-2.74.39-3.88,1.05Z"/>
          </g>
          <path id="bærestykke" class="cls-1" d="M127.97,143.29c-3.92,1.15-6.68,2.56-9.13,3.81-5.32,2.73-9.66,4.95-9.57,7.53.1,2.59,4.55,2.86,9.17,7.54,3.54,3.59,4.99,7.46,5.84,10.09,1.52,4.69,3.28,13.56.8,23.11-.7,2.69-1.54,4.68-1.06,7.7.56,3.53,2.64,4.8,4.78,8.76,1.71,3.16,2.25,5.68,3.19,10.09.78,3.64.88,8.5,1.06,18.06.17,9.08-.02,11.14-.53,13.55-1.16,5.48-2.54,6.02-2.12,7.97,1.57,7.34,23.14,8.59,35.32,9.3,12.72.74,20.36-.46,35.59-3.19,6.52-1.17,12.15-2.5,13.55-6.37.94-2.6-.62-4.71-2.92-11.16,0,0-2.01-5.63-3.98-14.87-1.34-6.26-.95-10.2-.27-21.78,0,0,.81-13.66,1.33-32.14.42-14.68.15-20.88-3.98-26.83-1.74-2.51-4.01-4.74-7.7-7.17,0,0-25.24-16.88-69.36-4.01Z"/>
        </g>
        <g id="hat">
          <path class="cls-18" d="M129.12,122.39c-.07.06-.13.12-.18.19-1.36,1.83-.95,4.29-.66,6.75,0,0,.4,3.38.17,7.15-.27,4.29-1.23,5.2-.47,6.82.97,2.09,3.59,2.74,6.07,3.36,15.55,3.88,14.15,3.65,15.23,3.83,5.9.99,11.08,1.84,18.31,2.52,5.32.5,8.7.62,12.43.75.66.02,4.89.09,10.37-.28,1.3-.09,2.58-.19,4.22-.59,2.14-.51,4-.96,5.03-2.31,1.09-1.43.51-3.1.47-5.42-.14-8.26,1.92-10.54.49-11.84-2.03-1.85-6.62,2.4-15.98,4.63-2.65.63-8.07,1.68-13.88,1.26-7.25-.53-12.64-3.3-23.13-8.83-10.69-5.63-16.26-9.9-18.5-7.99Z"/>
          <g id="_øje_h" data-name="øje_h">
            <path class="cls-24" d="M183.85,30.95c-.39.16-.54.63-.56.7-.07.22-.07.46.04.84.21.8.64,1.33.67,1.37,1.01,1.28,3.1,4.49,4.49,5.26.49.27.87.22.96.2.11-.02.37-.06.51-.24.25-.32,0-.9-.21-1.33-.61-1.29-1.27-2.26-1.68-2.87-.33-.48-.77-1.14-1.4-2-.43-.59-.79-1.05-1.4-1.47-.43-.3-.94-.64-1.4-.46Z"/>
            <path class="cls-20" d="M177.73,29.42c-.01.47.71.81,1.23,1.13.72.44.56.54,2.39,2.41,1.85,1.89,1.76,1.53,3.29,3.13.25.26,1,1.09,2.5,2.74.46.51.85.93,1.11,1.22.53.59.55.59.65.72.59.78.59,1.24.92,1.3.29.05.63-.24.76-.53.16-.34.04-.67-.02-.83-.07-.19-.17-.33-.48-.69-.28-.33-.42-.49-.64-.71-.37-.37-.35-.39-1.23-1.37-.5-.56-.89-.97-1.65-1.79-1.89-2.02-2.83-3.03-3.87-4.05-.94-.92-.91-.83-1.56-1.49-.43-.44-.94-.82-1.36-1.27-.24-.25-.53-.58-.99-.64-.23-.03-.43,0-.56.05-.23.14-.5.37-.51.65Z"/>
            <path class="cls-1" d="M171.67,28.02c-.38.17-1.45.65-2.1,1.68-1.06,1.7-.31,3.79-.07,4.46.49,1.37,1.26,2.23,3.99,4.65,1.83,1.62,3.51,3.02,6.45,5.42,4.05,3.3,4.04,3.24,4.67,3.83.97.91,2.16,1.58,3.04,2.57.07.07.3.34.7.51.06.02.65.27,1.21.09.59-.18.91-.72,1.21-1.35.9-1.87,1.43-2.97,1.26-4.39-.18-1.51-1.06-2.54-1.78-3.36-8.7-9.96-10.89-11.05-12.28-12.72-.14-.16-.57-.64-1.27-1.06-1.04-.63-2.06-.74-2.52-.77-1.3-.07-2.26.33-2.52.44Z"/>
          </g>
          <path class="cls-1" d="M86.68,30.13c-.4.38-1.11,1.09-1.13,2.06-.03,1.33,1.27,2.35,1.87,2.8,6.38,4.85,25.23,15.04,27.57,16.35.65.37,2.78,1.59,5.89,2.71,1.28.46,2.32.76,2.62.84,5.17,1.37,16.17-3.22,19.16-11.77.27-.78.46-1.54.65-7.01.06-1.66.14-2.61.19-3.99.16-5.08-.08-9.31-.28-12.82-.14-2.38-.24-3.53-.31-5.98-.06-2.39-.09-3.58-.05-4.53.01-.3.01-1.97,0-5.3,0-.29,0-.93-.3-1.67-.09-.23-.34-.92-.84-1.31-1.1-.86-2.95-.51-4.11.19-.26.15-.73.63-1.68,1.58-.88.88-1.37,1.37-1.96,2.06-.43.5-.64.79-1.82,2.41q-2.03,2.78-2.13,2.92c-.36.53-.93,1.42-2.1,3.63-.76,1.42-1.31,2.5-2.45,4.91-.07.16-1.44,3.02-3.18,6.33-1.29,2.46-1.87,3.43-3.08,4.02-1.12.55-2.24.5-2.99.47-1.96-.08-2.52-.81-4.77-1.28-1.12-.24-1.98-.25-3.71-.28-.48,0-1.5-.01-5.91.35-2.51.21-2.59.24-3.69.3-2.54.13-2.64-.03-4.43.06-2.87.16-5.29.32-7,1.97Z"/>
          <path id="head" class="cls-18" d="M121.87,38.64c-1.4,1.05-2.39,2.02-3.43,3.04-.35.35-1.49,1.47-2.87,3.08-.83.97-1.7,1.99-2.68,3.45-.61.9-1.21,1.83-1.61,2.85-.13.32-.31.85-.67,1.92-.07.21-.2.58-.33,1.09,0,0-.06.24-.12.46-.19.81-.26,1.6-.27,1.79-.33,3.24-.37,5.98-.37,6.45-.03,2.33.02,2.53,0,4.2,0,.11-.02,1.44-.1,2.65-.17,2.24-.51,2.93-.58,3.96-.19,2.46,1.31,4.49,2.09,5.54,3.27,4.43,9.38,4.83,11.49,4.95,5.72.34,10.17-1.54,11.77-2.24,30.69-13.39,35.64-20.79,47.75-24.29,1.67-.48,7.33-1.82,7.66-4.58.13-1.09-.61-2-1.15-2.64-3.79-4.52-6.65-6.65-9.57-9.5,0,0-6.23-6.07-8.94-7.32-.69-.32-1.4-.49-1.4-.49h0c-.92-.28-2.24-.68-3.85-1.13-1.16-.33-1.76-.5-2.58-.7-1.32-.33-2.62-.65-4.26-.89-.5-.07-2.11-.29-4.22-.3-1.66-.01-2.89.11-6.38.56-4.13.54-6.2.81-7.43,1.05-3.95.77-6.75,1.69-7.36,1.89-1.46.49-3.38,1.13-5.78,2.31-1.43.71-2.98,1.48-4.8,2.84Z"/>
          <g id="finde">
            <path class="cls-22" d="M88.57,95.41c.15,1.98,3.26,3.22,4.87,3.86,6.91,2.75,13.53-.54,14.15-.86,1.41-.73,3.62-2.12,5.7-4.67.5-.72,1.41-1.79,2.86-2.6.47-.26,1.58-.86,3.08-1.02.87-.09,1.1.05,2-.13.57-.11,1.42-.27,2.27-.89.3-.22,1.22-.9,1.65-2.15.29-.83.15-1.66-.05-3.08-.06-.46-.15-.89-.13-1.56.03-.9.21-1.14.15-1.35-.28-.95-5.7-1.03-13.39,1.18-5.77,1.66-9.31,3.59-15.37,6.91-6.92,3.79-7.9,5.16-7.81,6.34Z"/>
            <path class="cls-1" d="M97.63,77.75c-2.58,2.27-5.65,4.99-7.59,9.86-.75,1.89-2.86,7.18-.91,8.89.45.39,1.62,1.04,7.71-1.48,6.54-2.72,13.26-6.82,18.59-10.02,1.24-.74,2.09-1.24,3.38-1.59,2.96-.8,4.17-.91,4.17-.91.41-.04,1.16-.09,1.73-.63.08-.08.65-.62.53-1.23-.02-.12-.14-.57-1.16-1.01-.96-.41-1.73-.38-3.18-.37-1.94.02-2.93.02-3.45-.11-1.08-.27-1.83-.75-2.58-1.23-1.19-.76-2.13-1.67-2.54-2.08-.49-.49-.79-.87-1.47-1.42-.74-.6-1.12-.9-1.65-.91-.65-.02-.76.42-1.74.78-.51.19-.77.18-2.22.3-.81.07-1.62.16-2.43.23-1.11.1-2.64.68-5.19,2.92Z"/>
          </g>
          <g id="blue_head">
            <path class="cls-1" d="M125.23,80.64c1.28.39,1.63,1.43,3.27,1.56.55.04.88-.05,3.15-.7,3.03-.87,3.19-.93,3.43-.84,1.78.65,1.14,6.33.98,9.11,0,0-.55,9.36,3.29,18.71,2.28,5.55,8.73,16.68,12.19,21.58.23.32.87,1.22.56,1.82-.93,1.8-9.53-.98-10.58-1.33-7.99-2.63-13.19-6.69-14.3-7.57-2.6-2.07-6.02-4.84-8.9-9.6-2.02-3.34-2.93-6.25-4.63-11.7-.33-1.06-.87-2.89-1.19-5.33-.32-2.48-.49-3.77-.14-5.26.6-2.55,2.31-3.99,5.4-6.59,3.12-2.63,5.35-4.51,7.45-3.87Z"/>
            <path class="cls-1" d="M188.67,51.77c-2.72-1.65-5.92-1.3-10.87,0-8.18,2.15-14.19,5.1-16.71,6.37-9.62,4.82-14.44,7.23-18.3,10.87-2.84,2.67-6.95,6.64-9.28,13.26-.41,1.16-1.91,5.52-1.59,11.94.58,11.77,6.53,25.15,10.61,24.67,4.94-.59-1.48-20.54,10.87-32.62,6.97-6.81,23.39-16.1,34.48-18.83,1.48-.37,6.3-1.47,7.12-4.46.51-1.85-.68-3.87-1.96-6.07-.97-1.66-2.24-3.82-4.36-5.11Z"/>
          </g>
          <path class="cls-14" d="M148.62,89.75c-1.31,2.06-5.57,8.98-5.05,18.5.56,10.25,6.31,17,9.25,20.46,2.82,3.32,6.07,7.13,11.59,9.36,11.33,4.57,22.77-1.36,27.38-3.75,4.16-2.16,13.56-7.03,17.94-17.66,2.62-6.36,2.11-11.54,1.12-21.58-1.31-13.35-2.2-22.34-8.69-26.35-4.58-2.83-9.65-1.76-19.62.34-12.84,2.71-21.11,8.55-23.83,10.59-3.62,2.72-7.06,5.31-10.09,10.09Z"/>
          <path id="face_back" class="cls-21" d="M157.08,127.68c2.17,2.08,5.87,5.57,11.25,8.17,4.88,2.36,13.73,6.64,20.6,2.73,5.68-3.23,7.39-10.57,8.41-14.93.39-1.68.54-4.27.84-9.46.29-5.01.87-15.02-.75-19.09-.15-.38-.75-1.79-.9-3.76-.1-1.27.04-2.22.08-2.56.4-3.2-.65-7.31-1.59-10.95-1.39-5.43-2.02-8.22-2.94-9.04-7.26-6.48-28.5,1.57-39.19,15.68-2.15,2.84-6.35,8.54-7.02,17-.72,9.13,3.1,15.93,4.17,17.77,2.2,3.79,4.71,6.19,7.04,8.44Z"/>
          <path class="cls-11" d="M212.54,82.27c-3.09-14.85-7.24-17.78-8.49-18.57-3.36-2.13-6.62-2.03-12.47-1.86-13.86.41-24.12,6.26-28.38,8.75-5.77,3.38-9.56,6.75-10.87,7.96-3.33,3.06-7.49,6.89-10.61,13-1.49,2.92-5.84,11.45-3.71,21.48,1.11,5.25,4.19,9.25,10.34,17.24,6.08,7.9,9.12,11.85,13.79,13.79,6.68,2.78,13.07,1.28,19.63-.27,4.81-1.13,12.36-2.91,19.36-9.02,10.2-8.9,12.29-20.93,13.26-26.52,1.62-9.31.2-16.12-1.86-25.99ZM204.26,117.57c-2.44,5.08-6.56,7.69-10.29,10.06-1.54.98-8.79,5.39-19.36,5.84-5.39.23-9.46.4-13.53-2.12-5.13-3.18-6.99-8.63-9.02-14.59-1.37-4.03-2.67-7.84-2.12-13,.69-6.45,3.84-10.83,5.04-12.47,3.79-5.14,8.21-7.33,14.85-10.61,4.23-2.09,9.81-3.52,20.95-6.37,5.31-1.36,7.55-1.77,9.55-.53,1.65,1.02,2.43,2.88,3.71,11.94.98,6.91,1.47,10.37,1.61,15.42.23,8.53.35,12.8-1.4,16.43Z"/>
          <g id="_øje_v" data-name="øje_v">
            <path class="cls-1" d="M124.87,46.5c-.82,1.53-1.99,4.22-2.15,7.76-.15,3.33.67,5.99,1.31,7.57.62,1.53,1.97,4.74,5.33,7.19,2.74,2.01,5.45,2.51,7.57,2.9,2.32.43,3.44.24,3.74.19,2.39-.44,3.94-1.88,5.08-2.97.81-.78,2.87-2.91,4.45-6.93,1.06-2.7,2.89-7.36,1.4-12.99-.38-1.45-1.62-5.88-5.79-8.97-1.08-.8-3.5-2.55-7.01-2.71-3.15-.15-5.45,1.06-6.82,1.78-4.4,2.31-6.45,5.98-7.1,7.19Z"/>
            <path class="cls-20" d="M131.22,48.44c-1.66,1.95-2.28,4.01-2.52,5.23-.19.95-.55,2.87.14,5.19.18.6.79,2.45,2.48,4.16.63.64,1.41,1.43,2.66,1.92,2.45.95,4.8-.02,5.56-.33,2.87-1.17,4.27-3.5,5-4.72.34-.57,2.31-3.94,1.82-8.41-.16-1.47-.32-2.92-1.4-4.35-1.98-2.6-5.25-2.74-5.65-2.76-1.86-.05-3.24.62-4.35,1.17-2.06,1.01-3.29,2.37-3.74,2.9Z"/>
            <path class="cls-24" d="M137.47,51.44c-1.4.8-2.06,1.97-2.4,2.58-.3.55-.92,1.71-.89,3.32.01.55.05,1.71.8,2.88.35.54,1.4,1.96,3.27,2.24,1.63.24,2.86-.53,3.36-.84,1.75-1.09,2.36-2.79,2.57-3.4.2-.59,1.18-3.43-.51-5.66-.27-.36-1.32-1.63-3.08-1.87-1.48-.2-2.61.45-3.12.75Z"/>
          </g>
          <path id="face_front" class="cls-21" d="M157.12,128.32c3.95,4.69,8.48,6.86,11.25,8.17,5.09,2.43,13.64,6.5,20.6,2.73,6.25-3.38,7.71-11.17,8.41-14.93,1.85-9.9-2.25-17.57-5.02-22.72-1.77-3.29-4.97-9.26-8.74-9.04-1.84.11-1.89,1.72-5.26,3.99-.87.59-3.29,2.15-13.25,5.47-3.99,1.33-4.7,2.25-6.52,2.1-4.06-.32-5.43-3.74-6.88-3.23-2.9,1.03-3.54,16.81,5.4,27.44Z"/>
          <path id="nose" class="cls-17" d="M183.94,92.21c2.51,4.01,2.92,3.76,4.03,6.14,1.36,2.88.6,2.91,1.68,4.63,1.99,3.15,4.6,3.12,4.94,5.35.29,1.95-1.44,3.56-1.54,3.64-1.17.98-2.76,1.04-5.89,1.12-2.5.07-3.76.09-4.77-.56-.89-.57-1.53-1.47-2.24-3.64-1.27-3.84-.58-4.99-1.26-11.49-.22-2.12-.5-4.02.42-6.17.25-.58.95-2.2,1.96-2.24.81-.03,1.27.99,2.66,3.22Z"/>
          <path id="eye_l" class="cls-20" d="M163.3,100.4c-1.08-.93-2-2.64-1.66-4.23.66-3.13,5.67-3.63,6.48-3.71,1.55-.15,3.87-.39,5.41,1.34.98,1.1,1.58,2.94,1.03,4.46-.86,2.4-4.11,2.76-6.23,2.99-1.85.2-3.58.39-5.03-.85Z"/>
          <path id="eye_r" class="cls-20" d="M189.44,95.15c-.69-.59-1.02-1.3-1.12-1.53-.13-.33-.42-1.04-.22-1.9.14-.61.46-1.01.72-1.34.72-.89,1.59-1.27,2.09-1.49.5-.22,1.6-.68,3-.51.57.07,1.15.14,1.74.55,1.23.86,1.32,2.52,1.33,2.83.02.41.06,1.49-.65,2.48-.72,1-1.77,1.29-2.43,1.47-.79.22-2.88.79-4.46-.56Z"/>
          <path class="cls-24" d="M165.98,95.92c-.53.83-.41,1.69-.36,2,.05.35.2,1.35,1.09,1.98.8.56,1.94.63,2.8.09.9-.55,1.1-1.52,1.17-1.82.08-.37.29-1.69-.65-2.66-.11-.12-.93-.93-2.15-.79-1.19.13-1.8,1.06-1.9,1.2Z"/>
          <path class="cls-24" d="M190.64,91.54c-.46.71-.35,1.45-.31,1.72.04.3.17,1.16.93,1.69.69.48,1.66.54,2.4.08.77-.48.94-1.3,1-1.56.07-.32.25-1.45-.56-2.28-.1-.1-.8-.8-1.84-.68-1.02.11-1.55.91-1.63,1.03Z"/>
          <path class="cls-23" d="M173.99,123.06c-.14.57,4.24,2.17,8.07,2.97,3.71.77,5.28.46,6.34.07,1.54-.57,2.58-1.49,3.22-2.07,1.66-1.48,3.09-3.56,2.75-3.91-.32-.34-2.08,1.08-3.73,1.99-7.35,4.06-16.46.12-16.67.95Z"/>
        </g>
      </g>
      <g>
        <path class="cls-13" d="M19.29,326.78c9.81,17.44,19.47,31.25,27.29,41.43,13.89,18.1,25.38,29.22,28.46,32.17,2.53,2.42,3.8,3.63,5.43,5.03,7.81,6.72,21.69,15.87,45.44,20.4,45,2.06,90.82,3.7,137.44,4.88,42.94,1.09,85.22,1.75,126.83,2.02,11.05.13,20.48-.07,27.79-.34,20.43-.74,27.96-2.09,33.85-3.54,11.51-2.82,18.35-6.35,23.75-11.62,2.5-2.44,4.08-4.66,5.05-6.06,9.66-13.96,21.45-37.51,26.11-46.99-121.72-6.4-243.44-12.8-365.16-19.2-32.09-9.08-67.94-15.75-107.12-17.69-5.12-.25-10.17-.42-15.16-.51Z"/>
        <path class="cls-12" d="M261.15,342.74c.88-.76-1.37-3.48-.34-7.07.55-1.92,1.77-3.16,2.27-3.62,1.48-1.36,3.12-1.84,4.13-2.02.37-.07,3.64-.59,6.48,1.52,1.36,1.01,2.03,2.18,2.69,3.37.5.89,1.36,2.45,1.52,4.63.06.87,0,1.6-.08,2.11h5.47c-.04-1.06-.19-2.45-.59-4.04-.15-.6-.63-2.38-1.77-4.55-.8-1.53-1.78-3.38-3.62-5.05-.84-.76-3.63-3.29-7.92-3.45-4.11-.16-7,1.96-8.08,2.78-3.28,2.48-4.47,5.72-4.97,7.16-.79,2.27-.93,4.27-.93,5.56,3.86,2.87,5.24,3.12,5.73,2.69Z"/>
        <path class="cls-19" d="M0,301.35c2.61,7.62,5.22,15.24,7.83,22.86,3.68,1.03,7.38,2.04,11.12,3.03,0,0,48.89,12.94,106.11,20.21,42.18,5.36,186.56,15.49,383.35,19.54,1.91-4.94,3.82-9.88,5.73-14.82-159.31-8.84-280.17-16.94-339.22-21.22-19.53-1.42-55.41-4.13-102.07-12.8-30.59-5.68-55.63-12.04-72.85-16.8Z"/>
      </g>
    </g>
  </g>
</svg>