<?xml version="1.0" encoding="UTF-8"?>
<svg id="Layer_2" xmlns="http://www.w3.org/2000/svg" viewBox="0 0 760.39 320.14">
  <defs>
    <style>
      .cls-1 {
        stroke-width: 3px;
      }

      .cls-1, .cls-2 {
        fill: none;
        stroke: #333;
        stroke-miterlimit: 10;
      }

      .cls-3 {
        fill: #333;
      }
    </style>
  </defs>
  <g id="bundtrawl">
    <g>
      <path class="cls-3" d="M646.78,306.09c-.26,8.31-5.66,14.58-12.06,14.01s-11.37-7.77-11.11-16.08c.26-8.31,5.66-14.58,12.06-14.01,6.4.57,11.37,7.77,11.11,16.08Z"/>
      <path class="cls-3" d="M760.38,156.53c-.36,11.42-7.77,20.03-16.56,19.24-8.79-.79-15.62-10.68-15.26-22.09s7.77-20.03,16.56-19.24c8.79.79,15.62,10.68,15.26,22.09Z"/>
      <path class="cls-3" d="M649.13,16.12c-.26,8.31-5.66,14.58-12.06,14.01-6.4-.57-11.37-7.77-11.11-16.08.26-8.31,5.66-14.58,12.06-14.01s11.37,7.77,11.11,16.08Z"/>
      <path class="cls-1" d="M611.83,73.63c-4.51,11.69-7.09,19.81-9.28,29.16-1.07,4.58-3.76,16.77-5.13,33.33-1.15,13.9-.86,24.75-.7,28.9.19,5.01.76,16.07,3.3,31.32,1.47,8.83,4.44,21.75,12.94,49.42,4.62,15.02,10.63,32.42,18.4,50.95,10.52-7.6,19.4-14.8,26.37-20.74,5.14-4.38,19.05-16.44,36.03-34.4,9.78-10.34,13.69-15.36,15.98-18.41,2.5-3.33,9.52-12.92,17.44-27.61,4.77-8.85,10.46-20.66,16.04-35.59-.79-4.7-1.57-9.41-2.36-14.11-3.73-1.36-8.95-3.71-14.89-7.98-3.7-2.66-6.7-5.35-13.8-12.58-8.41-8.56-14.21-14.45-22.34-23.93-6.85-7.99-11.32-13.81-19.8-24.85-11.03-14.37-16.66-21.74-22.34-31.29-5.52-9.28-9.59-17.66-12.17-23.32-10.97,20.53-18.62,38.59-23.68,51.72Z"/>
      <path class="cls-1" d="M633.77,11.81c-18.38-.96-44.23-2.06-75.23-2.6-36.44-.63-55.45-.96-77.16.33-32.84,1.95-67.96,4.05-112.05,19.44-14.02,4.89-69.09,25.14-117.14,64.49-5.82,4.77-20.21,16.02-48.97,38.54-5.43,4.25-18.95,14.77-36.95,26.17-13.08,8.28-20.44,11.9-28.32,14.53-7.44,2.48-14.66,3.86-24.33,4.54-30.44,2.16-34.52-6.4-58.67-3.7-19.26,2.16-31.41,9.18-40.72,19.62-9.88,11.09-11.88,20.79-12.46,26.29-.99,9.49,1.1,17.35,1.83,19.81,3.42,11.57,10.26,17.2,17.09,21.18,28.72,16.72,60.68,6.07,67.86,3.49,7.97-2.86,12.93-5.67,24.46-8.67,8.98-2.34,17.34-3.59,27.08-4.3,44.49-3.25,79.51,2.98,79.51,2.98,33.4,5.94,40.49,12.9,83.97,26.65,41.72,13.19,73.38,18.86,97.86,23.24,24.74,4.43,67.69,11.92,124.21,12.67,28.43.38,64.09-.91,105.22-6.61"/>
      <path class="cls-1" d="M519.86,9.08c-8.5,25.67-24.44,81.9-24.6,157.96-.15,71.24,13.61,124.75,21.56,150.71"/>
      <path class="cls-1" d="M376.93,26.44c-7.44,22.25-21.19,70.34-21.86,135.64-.67,64.31,11.69,112.59,18.57,135.3"/>
      <path class="cls-1" d="M243.68,100.28c-.22.83-.53,2.04-.89,3.5-9.2,37.19-9.26,70.52-9.09,81.73.5,32.83,5.78,58.58,9.76,74.01"/>
      <path class="cls-1" d="M128.6,175.26c-1.9,4.41-7.59,18.84-7.26,39.49.31,19.54,5.83,32.91,7.84,37.35"/>
      <g>
        <line class="cls-2" x1="618.72" y1="13.4" x2="547.25" y2="315.95"/>
        <line class="cls-2" x1="604.86" y1="11.4" x2="533.05" y2="315.39"/>
        <line class="cls-2" x1="588.54" y1="10.34" x2="516.52" y2="316.36"/>
        <line class="cls-2" x1="573.19" y1="9.96" x2="501.01" y2="315.57"/>
        <line class="cls-2" x1="559.44" y1="9.08" x2="487.77" y2="312.49"/>
        <line class="cls-2" x1="543.17" y1="8.96" x2="471.43" y2="312.66"/>
        <line class="cls-2" x1="527.84" y1="8.85" x2="457.22" y2="307.8"/>
        <line class="cls-2" x1="513.57" y1="8.58" x2="442.95" y2="307.52"/>
        <line class="cls-2" x1="497.23" y1="8.75" x2="426.61" y2="307.7"/>
        <line class="cls-2" x1="481.78" y1="9.26" x2="411.62" y2="306.27"/>
        <line class="cls-2" x1="467.51" y1="8.99" x2="397.68" y2="304.61"/>
        <line class="cls-2" x1="450.69" y1="11.16" x2="381.96" y2="302.16"/>
        <line class="cls-2" x1="435.72" y1="13.38" x2="368.14" y2="299.47"/>
        <line class="cls-2" x1="421.28" y1="13.8" x2="354.38" y2="297.02"/>
        <line class="cls-2" x1="403.74" y1="19.05" x2="339.05" y2="292.91"/>
        <line class="cls-2" x1="387.42" y1="23.25" x2="324.8" y2="288.38"/>
        <line class="cls-2" x1="371.95" y1="28.09" x2="311.7" y2="283.14"/>
        <line class="cls-2" x1="354.2" y1="34.21" x2="296.53" y2="278.36"/>
        <line class="cls-2" x1="337.01" y1="41.96" x2="281.83" y2="275.58"/>
        <line class="cls-2" x1="320.87" y1="49.63" x2="269.13" y2="268.64"/>
        <line class="cls-2" x1="302.34" y1="59.04" x2="254.15" y2="263.05"/>
        <line class="cls-2" x1="284.36" y1="70.27" x2="239.77" y2="259.07"/>
        <line class="cls-2" x1="267.29" y1="81.87" x2="225.99" y2="256.69"/>
        <path class="cls-2" d="M247.58,96.3c-12.41,52.54-24.82,105.08-37.23,157.62"/>
        <line class="cls-2" x1="228.79" y1="111.99" x2="195.88" y2="251.29"/>
        <line class="cls-2" x1="211.7" y1="123.64" x2="181.54" y2="251.33"/>
        <line class="cls-2" x1="191.23" y1="141.3" x2="165.41" y2="250.61"/>
        <line class="cls-2" x1="172.93" y1="153.87" x2="149.82" y2="251.7"/>
        <line class="cls-2" x1="156.13" y1="164.33" x2="135.57" y2="251.37"/>
        <line class="cls-2" x1="138.37" y1="170.48" x2="118.11" y2="256.28"/>
        <line class="cls-2" x1="121.6" y1="176.46" x2="102.04" y2="259.28"/>
        <line class="cls-2" x1="107.01" y1="177.57" x2="86.43" y2="264.69"/>
        <line class="cls-2" x1="90.9" y1="176.75" x2="69" y2="269.45"/>
        <line class="cls-2" x1="76.19" y1="174.13" x2="53.64" y2="269.62"/>
        <line class="cls-2" x1="62.3" y1="172.25" x2="39.71" y2="267.89"/>
        <line class="cls-2" x1="45.31" y1="175.17" x2="24.66" y2="262.6"/>
        <line class="cls-2" x1="31.47" y1="179.96" x2="13.2" y2="257.28"/>
        <line class="cls-2" x1="17.71" y1="188.34" x2="4.75" y2="243.24"/>
        <line class="cls-2" x1="619.56" y1="264.66" x2="605.96" y2="315.22"/>
        <path class="cls-2" d="M611.38,236.37c-6.59,25.96-13.19,51.93-19.78,77.89"/>
        <line class="cls-2" x1="603.69" y1="209.03" x2="578.61" y2="315.2"/>
        <line class="cls-2" x1="597.39" y1="166.68" x2="562.11" y2="316.05"/>
        <line class="cls-2" x1="597.39" y1="175.8" x2="536.63" y2="6.69"/>
        <line class="cls-2" x1="625.54" y1="305.3" x2="521.58" y2="8.08"/>
        <line class="cls-2" x1="611.77" y1="312.31" x2="503.58" y2="6.88"/>
        <line class="cls-2" x1="593.76" y1="311.98" x2="488.26" y2="10.38"/>
        <line class="cls-2" x1="578.61" y1="315.2" x2="472.71" y2="10.07"/>
        <line class="cls-2" x1="562.67" y1="317.61" x2="455.26" y2="10.5"/>
        <line class="cls-2" x1="545.5" y1="315.85" x2="439.91" y2="13.97"/>
        <line class="cls-2" x1="531.02" y1="317.02" x2="425.25" y2="16.35"/>
        <line class="cls-2" x1="512.5" y1="316.02" x2="409.88" y2="22.62"/>
        <line class="cls-2" x1="495.8" y1="315.53" x2="393.03" y2="21.7"/>
        <line class="cls-2" x1="480.18" y1="315.07" x2="378.99" y2="25.78"/>
        <line class="cls-2" x1="461.8" y1="312.83" x2="362.76" y2="29.65"/>
        <line class="cls-2" x1="445.51" y1="310.82" x2="348.04" y2="35.61"/>
        <line class="cls-2" x1="429.75" y1="309.96" x2="335.33" y2="42.72"/>
        <line class="cls-2" x1="410.97" y1="306.57" x2="320.87" y2="49.63"/>
        <line class="cls-2" x1="392.96" y1="302.34" x2="307.79" y2="58.83"/>
        <line class="cls-2" x1="376.74" y1="300.17" x2="294.19" y2="66.19"/>
        <line class="cls-2" x1="357.42" y1="295.2" x2="278.98" y2="71.47"/>
        <line class="cls-2" x1="339.33" y1="290.86" x2="268.47" y2="82.83"/>
        <line class="cls-2" x1="322.56" y1="287.12" x2="254.72" y2="93.16"/>
        <line class="cls-2" x1="303.46" y1="282.79" x2="240.75" y2="103.5"/>
        <line class="cls-2" x1="283.87" y1="274.04" x2="227.8" y2="113.74"/>
        <line class="cls-2" x1="265.8" y1="266.59" x2="214.2" y2="122.33"/>
        <line class="cls-2" x1="245.83" y1="259.78" x2="201.89" y2="134.17"/>
        <line class="cls-2" x1="228.6" y1="257.06" x2="188.7" y2="142.97"/>
        <line class="cls-2" x1="212.15" y1="254.22" x2="177.13" y2="154.11"/>
        <line class="cls-2" x1="193.64" y1="251.6" x2="161.26" y2="159"/>
        <line class="cls-2" x1="176.7" y1="250.43" x2="147.65" y2="167.37"/>
        <line class="cls-2" x1="160.81" y1="249.21" x2="133.86" y2="172.14"/>
        <line class="cls-2" x1="143.85" y1="250.74" x2="116.15" y2="175.01"/>
        <line class="cls-2" x1="128.53" y1="254.56" x2="101.23" y2="176.51"/>
        <line class="cls-2" x1="111.64" y1="255.65" x2="83.22" y2="173.21"/>
        <line class="cls-2" x1="97.53" y1="260.43" x2="66.24" y2="170.96"/>
        <line class="cls-2" x1="82.88" y1="265.8" x2="50.04" y2="171.91"/>
        <line class="cls-2" x1="69" y1="269.45" x2="35.48" y2="174.49"/>
        <line class="cls-2" x1="50.5" y1="267.72" x2="21.47" y2="184.73"/>
        <line class="cls-2" x1="36.27" y1="266.23" x2="11.09" y2="194.26"/>
        <line class="cls-2" x1="20.96" y1="258.79" x2="3.16" y2="207.9"/>
        <line class="cls-2" x1="618.47" y1="57.77" x2="599.67" y2="8.76"/>
        <line class="cls-2" x1="610.5" y1="77.13" x2="585.57" y2="9.85"/>
        <line class="cls-2" x1="603.49" y1="98.97" x2="571.25" y2="9.15"/>
        <line class="cls-2" x1="597.47" y1="134.94" x2="552.66" y2="6.83"/>
        <line class="cls-2" x1="626.33" y1="40.04" x2="614.62" y2="9.85"/>
      </g>
    </g>
  </g>
</svg>