<?xml version="1.0" encoding="UTF-8"?>
<svg id="Layer_2" xmlns="http://www.w3.org/2000/svg" viewBox="0 0 177.55 98.01">
  <defs>
    <style>
      .cls-1 {
        fill: #fff;
      }
    </style>
  </defs>
  <g id="skeleton">
    <path class="cls-1" d="M176.18,33.32c-1.43-1.51-3.34-1.55-4.06-1.57-1.83-.04-3.17.7-4.25,1.32-1.91,1.09-2.16,1.84-5.21,4.78-2.31,2.22-2.54,2.15-4.6,4.22-2.04,2.06-3.05,3.08-3.59,4.13-2.36-.14-4.73-.28-7.1-.41-1.97-.11-3.93-.22-5.89-.33-.22-1.05-.61-2.72-1.23-4.76-.58-1.89-.86-2.47-1.77-5.16-1.2-3.58-.96-3.38-1.71-5.33-.91-2.4-1.56-4.06-2.9-5.99-.72-1.04-1.53-2.17-2.92-3.26-1.55-1.21-4.88-3.18-6.32-2-.76.62-.82,1.98-.54,2.88.34,1.11,1.15,1.4,2.32,2.54,1.05,1.02,1.63,2.07,2.78,4.16.86,1.56,1.3,2.69,2.15,4.86.84,2.15,1.34,3.71,2.07,6.02,1.14,3.56,1.41,4.88,1.53,5.48.01.07.02.13.04.2-5.72-.31-10.82-.56-15.19-.78-.38-.02-.75-.04-1.13-.06-.28-1.65-.62-3.59-1.06-5.75-1.29-6.37-2.6-10.97-3.36-13.49-.86-2.85-1.78-5.1-3.61-9.61-1.27-3.13-2.15-5.37-4.24-6.09-.98-.33-2.41-.41-3.06.33-.18.21-.6.82.35,4.08.51,1.76,1.04,2.99,1.45,3.98.39.93.94,2.41,2.05,5.36.77,2.06,1.58,4.23,2.42,6.96.87,2.86,1.34,4.93,1.81,7.01.83,3.66,1.05,5.44,1.03,6.93-5.47-.26-10.3-.47-14.59-.64-.33-2.92-.84-6.69-1.65-11.07-.85-4.63-1.39-7.59-2.68-11.49-.25-.75-1.96-5.87-5.58-11.93-3.14-5.26-4.61-6.01-5.77-5.95-1.22.06-2.49,1.03-2.89,2.22-.67,2.02,1.42,3.9,3.64,7.33,2.19,3.38,3.16,6.2,4.42,9.84,1.43,4.14,1.91,7.45,2.63,12.27.5,3.36.77,6.27.93,8.52-5.33-.2-9.65-.32-13.21-.41-1.76-5.93-3.1-11.99-5.16-17.81-.76-2.15-1.85-5.28-3.75-10.55,0,0-1.75-4.84-5.08-10.13-.47-.75-1.67-2.6-3.91-3.57-.73-.32-2.22-.97-3.32-.29-1.47.9-1.19,3.53-1.15,3.8.29,2.42,1.89,3.14,3.99,6.13.91,1.29,1.69,3.06,3.27,6.59.64,1.43,1.94,4.37,3.14,7.97,1.33,4,2.01,7.23,3.16,12.78.42,2.05.73,3.66,1.01,4.95-1.36-.01-2.57-.02-3.67-.03-5.08-.02-9.62,0-13.45.05-.94-5.4-2.72-11.82-6.49-18.5-4.13-7.3-7.91-13.99-14.22-14.96-10.59-1.63-20.26,14.11-23.47,19.34-3.43,5.58-11.95,19.45-7.22,34.14,2.3,7.14,6.95,12.07,8.89,14.13,4.98,5.27,9.93,7.81,14.85,10.28,9.52,4.77,15.85,7.95,20.59,5.34,3.68-2.02,4.66-7.28,6.48-17.71,1.1-6.31,2.22-12.75,1.77-21.23,5.62.1,11.23.19,16.85.29-.13,1.4-.22,3.2-.39,5.59-.4,5.65-.64,8.94-1.43,13.09-.71,3.74-1.6,6.82-2.05,8.32-1.09,3.71-1.63,5.57-2.36,6.97-1.69,3.24-3.18,4.18-3.14,6.61,0,.27.08,2.91,1.65,3.61,1.18.52,2.57-.32,3.25-.73,2.09-1.26,3.03-3.26,3.39-4.06,2.6-5.68,3.68-10.72,3.68-10.72,1.18-5.48,1.84-8.72,2.31-10.96,1.22-5.8,1.74-11.73,2.62-17.59,4.43.08,8.85.15,13.28.23-.1,2.35-.24,5.25-.43,8.57-.54,9.27-.87,11.1-1.17,12.49-.82,3.76-1.46,6.67-3.24,10.29-1.81,3.67-3.66,5.78-2.76,7.71.53,1.14,1.91,1.95,3.13,1.86,1.16-.08,2.53-.99,5.04-6.58,2.89-6.44,3.99-11.72,4.15-12.5.7-3.45.9-6.26,1.31-11.73.29-3.91.47-7.3.58-10l15.26.26c.01,1.3-.13,3-.53,5.76-.3,2.11-.6,4.21-1.24,7.13-.61,2.79-1.24,5.01-1.85,7.13-.86,3.03-1.3,4.54-1.61,5.5-.33,1.02-.76,2.28-1.13,4.08-.68,3.32-.22,3.9-.02,4.09.7.69,2.13.5,3.07.08,2.02-.88,2.72-3.19,3.74-6.41,1.46-4.64,2.19-6.96,2.82-9.87.55-2.57,1.49-7.26,2.25-13.71.16-1.31.29-2.54.4-3.68,5.59.17,11.18.35,16.77.52.05.84.07,2.14-.17,3.7-.1.64-.37,1.76-1.94,6.06-.8,2.19-1.22,3.33-2.05,4.91-1.11,2.12-1.66,3.17-2.69,4.22-1.15,1.17-1.95,1.47-2.27,2.59-.26.91-.17,2.26.6,2.87,1.46,1.15,4.75-.89,6.27-2.14,1.37-1.12,2.15-2.27,2.85-3.32,1.3-1.96,1.91-3.63,2.77-6.05.8-2.24,1.24-3.98,1.59-5.37.49-1.94.8-3.54,1.39-6.67.06-.32.12-.62.17-.92,3.98.07,7.96.14,11.94.21,2.67,3.5,5.92,7.28,9.87,11.1,2.21,2.13,4.38,4.03,6.48,5.72.63.13,2.56.44,3.92-.68,2.06-1.71,1.14-5.39.94-6.22-.64-2.56-1.8-2.89-4.49-7.2-1.85-2.95-2.77-4.47-2.84-6.24-.14-3.44,2.17-6.26,2.7-6.87,1.35-1.56,2.18-1.59,4.28-4.03,1.69-1.96,1.94-2.85,2.01-3.5.24-2.14-1.21-3.72-1.34-3.86ZM22.32,33c-.81.66-1.51,1.2-2.17,1.69.12.19.24.37.36.56,2.22,3.45,3.02,4.39,2.58,5.39-.35.79-1.34,1.32-2.16,1.25-.59-.05-1.07-.4-2.6-2.36-.74-.95-1.31-1.75-1.74-2.36-3.38,2.32-4.3,3.15-5.31,2.75-.8-.32-1.36-1.3-1.32-2.12.03-.59.37-1.09,2.28-2.67.72-.6,1.35-1.09,1.88-1.49-.2-.29-.42-.61-.7-1.03-1.91-2.84-2.2-3.43-2.01-4.14.23-.87,1.12-1.63,1.99-1.68.87-.05,1.56.62,3.1,2.61.44.57.82,1.09,1.17,1.58.36-.27.76-.56,1.33-.97,2.78-1.99,3.36-2.3,4.07-2.13.87.21,1.66,1.07,1.74,1.94.07.87-.57,1.58-2.52,3.18Z"/>
  </g>
</svg>