<?xml version="1.0" encoding="UTF-8"?>
<svg id="Layer_2" xmlns="http://www.w3.org/2000/svg" viewBox="0 0 133.45 111.18">
  <defs>
    <style>
      .cls-1 {
        fill: #dfe4ea;
      }

      .cls-2 {
        fill: #fbfbf1;
      }
    </style>
  </defs>
  <g id="Musling">
    <g id="musling_2">
      <path class="cls-2" d="M47.15,68.96c.06-.79.34-3.03,2.08-4.5,2.66-2.25,6.91-1.15,9.34.69,3.48,2.63,3.47,6.94,3.46,7.26-.1,4.99-4.5,7.75-4.84,7.96-6.75,4.08-15.81-2.44-16.26-2.77-5.11-3.78-8.35-10.25-7.96-16.95.63-10.65,10.11-16.14,12.11-17.29,8-4.63,16.01-3.26,18.68-2.77,10.15,1.89,16.07,8.63,17.99,11.07,5.5,6.99,6.24,14.35,6.57,17.64.66,6.6-.65,11.87-1.19,13.79-.11.38-.8,2.81-1.92,5.23-4.12,8.93-12.35,14.18-14.53,15.56-8.59,5.47-24.13,10.43-39.78,4.84C5.27,99.59.71,69.82.45,67.93-3.16,41.46,15.55,19.34,32.62,9.13,53.78-3.53,75.23.42,78.97,1.17c21.03,4.21,33.19,17.53,36.66,21.44,12.5,14.1,15.42,29.32,16.6,35.97,2.38,13.35.78,24.48-.69,31.13-14.94-1.77-29.88-3.54-44.83-5.31"/>
      <path class="cls-1" d="M47.02,68.5c.63-2.79,2.5-4.95,4.9-5.6,2.51-.68,4.63.56,5.6,1.12,3.94,2.29,4.59,6.64,4.62,6.86.06.45.46,3.85-1.82,6.86-2.58,3.4-6.68,3.81-7.84,3.92-8.41.83-14.6-7.36-15.26-8.26-.74-1.01-5.84-8.21-3.5-17.22,1.95-7.48,7.73-11.22,10.08-12.74,8.84-5.72,18.35-4.1,21.14-3.5,12.5,2.69,18.59,12.7,19.88,14.98,3.32,5.84,3.83,11.36,4.06,14.14.55,6.64-.78,11.99-1.82,15.12,6.19.72,12.38,1.45,18.57,2.17.23-1.03.53-2.53.72-4.34.25-2.28.69-8.35-2.17-17.85-1.79-5.95-3.91-12.97-9.89-20.26-2.32-2.83-8.49-10.16-19.54-14.23-4.8-1.77-14.89-4.53-26.77-1.21-4.57,1.28-14.01,4.75-21.22,13.75-2.19,2.73-5.45,6.8-6.75,13.02-2.56,12.28,4.73,22.25,6.27,24.36,1.43,1.96,8.96,12.25,21.95,13.51,3.2.31,10.85,1.05,17.12-4.34,6.98-5.99,6.8-14.88,6.75-16.16-.04-.98-.62-12.01-9.41-16.64-4.34-2.29-11.08-3.22-15.44.24-.61.49-4.14,3.3-3.62,7.24.39,2.93,2.78,4.66,3.37,5.06h.02Z"/>
    </g>
  </g>
</svg>