<?xml version="1.0" encoding="UTF-8"?>
<svg id="Lag_2" data-name="Lag 2" xmlns="http://www.w3.org/2000/svg" viewBox="0 0 151.95 135.53">
  <defs>
    <style>
      .cls-1 {
        fill: #fcfcf1;
      }

      .cls-2 {
        fill: #eaeac7;
      }
    </style>
  </defs>
  <g id="Søstjerner">
    <g id="musling_1">
      <path class="cls-1" d="M90.83,134.95c5.74.15,8.19.48,14.46.41,3.35-.04,5.28-.16,7.27-1.4.7-.44,2.81-1.8,3.72-4.54.24-.73.87-2.99-.17-5.54-.97-2.38-2.8-3.54-3.39-3.88-23.76-.03-47.53-.06-71.29-.08-.81.24-2.32.8-3.72,2.15-.52.51-1.55,1.52-2.07,3.14-.89,2.79.4,5.3.66,5.78,1.7,3.12,5.66,3.69,8.84,4.21.97.16,2.34.19,5.04.25,4.76.1,7.14.16,10.33-.04,3.29-.21,5.86-.38,9.2-1.24,2.15-.55,3.89-1.2,5.12-1.71,1.65.66,4.14,1.51,7.25,2.05,2.82.48,3.95.32,8.74.45Z"/>
      <path class="cls-2" d="M105.19,125.45c.46-.12,1.19-.38,5.75-1.81,7.31-2.29,8.23-2.57,9.94-3.15,2.12-.72,5.15-1.8,8.78-3.27,6.99-3.18,11.6-6.23,14.32-8.25,1.04-.77,2.26-1.73,3.56-3.23,1.37-1.6,4.01-4.66,4.36-9.21.09-1.14.46-5.93-3.07-9.7-4.23-4.51-10.41-3.65-10.99-3.56-39.92.81-79.84,1.62-119.76,2.42-1.25-.6-3.26-1.38-5.82-1.62-2.24-.21-6.18-.57-9.05,1.94-2.37,2.07-2.78,5.01-3.07,7.11-.16,1.14-.56,4.96,1.45,9.05,1.44,2.92,3.38,4.48,6.3,6.79,5.37,4.23,10.4,6.25,11.31,6.63,15.47,6.36,25.55,10.44,36.85,12.61,4.44.85,10.88,1.75,18.93,1.67,12.66-.36,22.92-2.44,30.2-4.41Z"/>
      <path class="cls-1" d="M93.38,124.94c7.26-3.16,12.34-7.42,22.22-15.8,0,0,14.94-12.68,27.4-28.39,1.59-2,4.4-5.64,6.17-11.11.96-2.95,2.38-7.51,1.23-13.08-.5-2.42-1.9-9.25-8.15-12.84-7.71-4.42-16.15-.09-16.79.25-31.76,1.23-63.52,2.47-95.28,3.7-1.28-1.02-3.24-2.36-5.87-3.41-2.07-.83-6.12-2.44-10.67-1.53-8.26,1.66-11.82,10.41-12.1,11.11-1.92,4.93-1.12,9.35-.49,12.59,1.39,7.16,4.93,12.11,7.16,15.06,12.43,16.45,24.44,25.67,24.44,25.67,3.92,4,9.57,8.92,17.16,13.31,9.76,5.65,18.88,8.17,25.18,9.38,4.52-.52,11.1-1.75,18.38-4.92Z"/>
      <path class="cls-2" d="M106.96,10.1c4.82-.29,11.49,1.5,16.01,6.67,4.01,4.6,4.51,9.78,5,15.01.71,7.46-.63,13.55-2,18.35-1.34,4.69-3.66,11.54-13.68,29.69-4.66,8.45-8.52,15.41-13.49,22.99-1.77,2.71-3.37,5.16-5.53,8.03-4.71,6.27-8.89,10.49-10.45,12.03-1.97,1.94-4.59,4.37-7.84,6.99-2.45-1.93-5.65-4.63-9.15-8.11-3.23-3.22-7.95-8.34-13.63-16.69-5.64-8.29-9.16-15.61-15.97-29.91-5.82-12.23-8.85-19.7-11.34-28.69-1.49-5.35-2.78-11.29-1.33-18.35.61-2.97,1.65-7.72,5.67-12.01,1.2-1.28,5.12-5.37,11.34-6.34,10.26-1.6,17.75,6.66,18.35,7.34,11.23.56,22.46,1.11,33.69,1.67,1.05-.73,2.6-1.9,4.3-3.56,1.46-1.43,1.84-2.04,2.71-2.78,2.42-2.04,5.43-2.22,7.34-2.34Z"/>
      <path class="cls-1" d="M63.85,3.35c-5.83,3.69-8.01,9.17-8.63,10.78-.86,2.25-1.11,3.99-1.44,6.47-.78,5.81-.4,10.61.25,15.86.94,7.68,2.11,13.56,2.76,16.79,2.12,10.49,3.93,18.49,4.44,20.71,3.81,16.72,5.71,25.08,8.2,34.92,1.45,5.72,3.3,12.82,5.55,20.97,1.26-3.64,3.11-9.17,5.12-16,2.37-8.07,3.1-11.61,8.27-32.95,3.06-12.65,3.82-15.59,5.3-22.36,2.29-10.49,3.3-16.39,3.96-22.85,1.46-14.24-.05-18.69-.72-20.49-.85-2.26-3.31-8.8-10.06-12.58C81.34-.45,75.89-.06,73.92.12c-1.79.15-5.83.55-10.06,3.23Z"/>
    </g>
  </g>
</svg>