<?xml version="1.0" encoding="UTF-8"?>
<svg id="Layer_2" xmlns="http://www.w3.org/2000/svg" viewBox="0 0 140.72 134.2">
  <defs>
    <style>
      .cls-1 {
        fill: #474747;
      }

      .cls-2 {
        fill: #2d3b22;
      }

      .cls-3 {
        fill: #616161;
      }

      .cls-4 {
        fill: #7b7b7b;
      }
    </style>
  </defs>
  <g id="planter">
    <g>
      <path id="tang_2" class="cls-2" d="M62.31,117.02c-1.49.22-3.76.57-6.81.37-2.27-.15-7.18-.47-11.77-3.47-.19-.13-2.44-2.07-6.94-5.95-1.83-1.58-2.97-2.57-4.83-3.34-2.76-1.15-3.42.12-5.7-.99-3.02-1.47-4.63-4.79-4.96-5.45-.49-1.02-.33-1.03-.74-1.73-1.4-2.41-3.74-3-5.57-3.96-4.92-2.59-6.81-8.15-7.06-8.92-1.14-3.52.44-3.82-.74-8.05-.5-1.8-1.74-4.05-4.21-8.55-2.12-3.86-2.57-4.36-2.85-5.95-.05-.28-.62-3.78,1.24-7.19.43-.79,1.34-2.45,2.35-2.35.8.07,1.3,1.19,1.86,2.48,1.1,2.52.52,3.17,1.49,5.08.31.62,1.14,2.22,2.85,3.22.64.38.7.26,2.35.99,1.77.78,2.65,1.18,3.1,1.73.51.64.38,1.03.74,3.59.35,2.48.54,3.73,1.11,4.46.77.99,1.33.65,3.47,1.86,1.41.8,3.27,1.85,4.21,3.72.38.76.28,1,.62,4.34.33,3.33.51,5.01.87,5.7,1.25,2.41,3.9,3.57,5.08,4.09,1.48.65,1.9.49,3.72,1.36,1.41.68,2.48,1.2,3.47,2.23,1.64,1.71.99,2.69,2.6,4.46,1.43,1.56,3.17,2.14,3.84,2.35,1.55.49,2.77.43,3.84.37.82-.04,2-.12,2.14-.62.1-.35-.36-.77-.43-.84-.56-.51-1.2-.4-1.8-.56-1-.26-1.56-1.16-2.11-2.04-1.02-1.65-.5-2.49-1.18-5.02-.46-1.72-.84-3.17-2.04-4.21-.82-.71-1.53-.82-4.96-1.49-3.33-.65-5-.98-5.27-1.11-3.44-1.74-4.62-5.99-4.89-7.19-.11-.48-.09-.51-.31-5.02-.28-5.6-.34-5.98-.43-6.44-.38-1.81-1-4.75-3.34-6.81-1.52-1.34-3.22-1.82-6.57-2.79-2.58-.74-2.93-.51-4.46-1.24-1.3-.62-3.54-1.68-4.58-4.09-.91-2.09-.44-4.08-.19-5.14.5-2.1,1.56-3.43,2.11-4.09.6-.73,1.03-1.24,1.8-1.49.42-.13.84-.16,2.85.19,2.06.35,1.93.42,2.42.43,1.16.02,1.39-.4,3.65-1.24,2.27-.84,3.79-1.05,4.27-1.11,1.44-.18,2.27-.09,2.48-.06.83.1,1.98.24,2.97,1.05.18.15.63.54,1.42,2.04.87,1.65,1.3,3.02,1.36,3.22.9,2.9,1.48,4.8,1.98,7.68.68,3.91.79,7.21.81,8.67.02,1.4-.01,3.07.5,5.33.58,2.56,1.32,3.47,1.73,3.9.56.58.54.3,2.73,1.8,1.61,1.1,2.41,1.65,3.04,2.17,1.07.88,1.51,1.39,1.86,1.24.35-.16.28-.87.31-1.92,0-.32.21-1.59.62-4.15.55-3.45.72-2.98.74-4.09.05-2.37-.74-4.19-1.05-4.89-.31-.69-.91-1.56-2.11-3.28-2.11-3.03-2.51-3.36-3.28-4.77-.5-.9-1.22-2.21-1.61-3.78-.61-2.46-.03-4.06.56-7.31.92-5.08,1.38-7.63.74-9.6-.8-2.5-2.93-5.55-4.34-7.56-.43-.62-.8-1.11-1.18-1.92-.31-.66-1.14-2.64-.87-6.26.14-1.82.48-6.32,3.78-10.53.98-1.25,2.71-3.4,5.7-4.46.92-.33,2.35-.81,4.09-.43,1.82.4,2.95,1.52,3.78,2.35.86.87,2.17,2.48,3.16,5.64,1.23,3.92,1.02,7.23.87,9.29-.31,4.34-1.57,9.29-2.6,12.2-.14.4-.47,1.29-.68,2.54-.47,2.74-.03,4.91.06,5.33.18.85.37,1.28,2.85,6.07,1.81,3.49,1.88,3.6,2.04,4.15.54,1.85.43,3.51.19,6.75-.09,1.14-.25,3.3-.74,6.07-.31,1.72-.3,3.51-.74,5.2-.1.4-.34,1.25-.06,2.23.05.17.19.62.93,1.61.75,1.01.95,1.01,1.92,2.17,1,1.19,1.5,1.8,1.55,2.42.03.37-.03.85.26,1.04.18.11.46.1.6-.05.21-.21.03-.6,0-1.02-.05-.73.37-1.25.7-1.77.15-.23,1.5-2.35,1.58-4.32.04-.98-.25-1.69-.84-3.11-.82-1.99-1.32-1.97-1.72-3.34-.43-1.52-.19-2.85.05-4.13.36-1.93.84-2.25,1.16-3.76.08-.39.39-1.98-.33-5.06-.96-4.14-2.29-4.7-3.44-8.27-.33-1.02-1.34-4.28-.84-8.27.5-3.99,2.34-7.31,3.11-8.69,1.34-2.41,2.1-2.95,2.6-4.97.4-1.62.27-3.04,0-5.81-.42-4.23-1.01-4.78-.93-7.57.06-2.04.13-3.64,1.21-5.3,1.53-2.35,3.95-3.03,4.27-3.11.15-.04,3.08-.77,5.81.88,3.28,1.98,3.92,5.96,4.23,7.85,1.07,6.59-2.4,13.07-2.74,13.66-.05.09-.29.47-.46,1.02-.28.85-.25,1.58-.23,1.86.09,1.74,1.09,3.44,1.11,3.48,1.57,2.65,1.47,6.95,1.44,8.46,0,0-.11,5.23-4.18,13.57-.04.09-.19.38-.33.79,0,0-.44,1.29-.33,2.74.12,1.54.9,2.75,1.63,4,.87,1.5,2.39,4.12,3.02,6.6.15.6.67,2.81.19,5.44-.42,2.31-1.27,3.08-5.16,9.94-.1.18-.8,1.43-1.53,3.11-1.07,2.46-.48,1.89-1.02,2.88-.15.27-.5.87-.33,1.49.02.06.12.44.33.46.32.04.66-.82.74-1.02.86-2.03,4.01-4.54,6.41-7.99.35-.5,1.89-2.75,2.93-5.71,1.46-4.16,1.21-7.67.79-13.43-.27-3.77.26-7.65-.6-11.34-.02-.07-.47-2,.33-3.44.14-.26.34-.52.65-.7.68-.38,1.55-.16,2,.09,1.11.62,1.09,2.21,1.49,5.2.39,2.95.46,1.83.88,5.06.51,3.9.83,6.32.65,9.38-.11,1.9-.36,5.57-2.14,9.66-1.62,3.72-2.33,2.79-5.48,8.59-1.4,2.58-3,5.52-4,7.62-.63,1.34-1.11,2.52-1.77,3.16-.41.4-.55.67-.84,1.21-.22.42-.22.53-.19.6.18.37,1.41.19,2.09,0,2.89-.81,4.46-4.21,4.88-5.11.78-1.69.35-1.65,1.25-3.62,1.12-2.45,2.47-4.04,2.83-4.46.29-.33,1.09-1.09,2.69-2.6,2.22-2.1,2.35-2.16,2.69-2.6.33-.43,1.3-1.78,1.72-4.83.56-4.11-.63-5.91-1.3-12.22-.14-1.36-.31-2.94-.33-4.97-.03-4.92.89-8.58,1.95-12.68.91-3.52,1.88-6.03,3.81-11.06.85-2.21,2.03-5.13,4.55-7.85,1.32-1.42,2.45-2.2,3.86-2.46.36-.07,2.11-.36,3.86.6,1.67.92,2.35,2.45,2.93,3.81.62,1.45,1.25,3.61,1.11,7.06-.06,1.56-.36,5.35-2.46,10.08-.49,1.11-.68,1.36-5.39,9.01-3.03,4.93-3.12,5.09-3.3,5.57-1.87,5.05-.94,10.08-.6,11.75.39,1.95.65,1.99,1.35,5.25.67,3.1,1,4.69.84,6.78-.17,2.25-.8,4.04-1.21,5.2-.56,1.6-.84,2.41-1.39,3.11-.43.56-1.04,1.15-.88,1.39.12.18.59.08.74.05,2.71-.6,4.92-3.21,4.92-3.21,3.04-3.57,4.55-5.36,5.53-7.29,2.37-4.71,1.16-5.6,3.25-11.61,1.76-5.05,3.23-9.28,7.11-11.66,1.71-1.05,2.88-1.12,5.81-3.07,1.78-1.19,3.24-2.15,4.69-3.86,2.89-3.38,4.37-7.25,4.37-7.25.41-1.07.75-2.21,1.86-2.88.84-.51,2.11-.74,3.16-.19,1.28.67,1.57,2.15,1.72,2.88.11.55.44,2.6-1.3,5.71-.67,1.2-1.62,2.51-4.65,5.16-4.41,3.86-5.38,3.71-7.9,6.46-.64.7-2.3,2.6-3.81,5.39-1.23,2.27-1.36,3.3-3.34,8.55-1.04,2.74-1.56,4.11-2.14,5.39-1.45,3.2-3.78,7.58-5.11,9.57-.63.95-1.06,2.02-1.67,2.97-.19.3-.42.64-.33.74.19.22,1.56-.71,2.28-1.16,1.69-1.07,3.41-1.66,6.83-2.83,3.74-1.28,3.65-.8,6.5-1.95,2.46-.99,3.69-1.48,4.92-2.6.95-.86,1.51-1.7,3.11-2.79,1.12-.76,1.85-1.03,2.6-1.11.34-.04,1.29-.13,2.32.37.48.23,1.26.61,1.63,1.49.48,1.14-.1,2.22-.19,2.37-.44.79-1.17,1.16-1.44,1.3-.68.36-.35.31-4.32,4-3.44,3.19-2.44,2.07-6.13,5.44-1.5,1.37-2.27,2.1-3.67,2.69-.64.27-1.28.46-3.67.88-3.41.6-3.73.5-4.74.74-1.96.46-2.83,1.31-6.88,4.55-3.43,2.75-5.15,4.12-6.09,4.74-2.84,1.87-5.53,2.79-9.43,3.81-11.47,3.01-16.18,2.37-31.67,4.68Z"/>
      <g>
        <path id="stone1" class="cls-1" d="M106.3,100.33c-3.92-1.25-4.45-.32-12.44-1.25-5.81-.67-6.13-1.23-9.82-1.22-3.57,0-6.82.06-9.98,2.14-.91.6-3.54,2.33-4.54,5.56-.59,1.92-.21,3.73.55,7.35.75,3.57,1.21,5.61,2.91,7.37,1.37,1.41,2.92,2.02,4.08,2.41,9.62,3.22,19.65,2.31,19.65,2.31,9.6-.87,18.85-1.71,20.86-7.01.65-1.72.7-4.33.19-6.6-.13-.59-.7-2.96-2.56-5.38-2.84-3.7-6.74-5-8.91-5.69Z"/>
        <path id="stone_3" class="cls-3" d="M26.52,101.65c-2.68,1.53-4.19,3.37-6.34,6-1.94,2.36-2.91,3.55-3.55,5.42-.42,1.22-1.62,4.71.11,7.64,1.11,1.88,2.89,2.64,4.69,3.4.79.33,2.74,1.09,9.98,1.37.89.03,3.76.13,7.93.03,4.26-.1,6.38-.15,7.35-.41,1.36-.36,2.63-.93,10.17-7.89,4.78-4.41,6.11-5.88,5.91-7.76-.12-1.13-.75-2.04-1.89-3.68-.95-1.37-2.06-2.96-3.8-3.84-1.33-.66-1.95-.37-5.88-.32-6,.08-5.9-.59-9.7-.19-1.61.17-2.42.37-3.82.13-2.3-.39-2.81-1.4-4.55-1.78-2.39-.53-4.51.68-6.62,1.88Z"/>
        <path id="stone2" class="cls-4" d="M40.12,127.65c1.18,2.23,3.49,3.54,4.84,4.3,3.43,1.94,6.73,2.09,8.42,2.15,10.11.36,16.19-.29,24.38-.36,0,0,11.06-.09,19.54-2.87.48-.16,1.63-.55,2.51-1.61,1.68-2.02,1.12-4.98.54-7.89-.31-1.54-1.43-6.46-5.38-11.83-1.92-2.61-3.11-4.18-5.2-4.66-1.7-.39-2.58.27-5.74.54-2.22.19-2.71-.06-6.09-.18-7.61-.28-8.56.84-12.55-.18-3.27-.84-2.95-1.67-5.2-1.97-5.52-.75-10.4,3.87-12.37,5.74-4.41,4.18-10.77,13.01-7.71,18.82Z"/>
      </g>
    </g>
  </g>
</svg>