<?xml version="1.0" encoding="UTF-8"?>
<svg id="Layer_2" xmlns="http://www.w3.org/2000/svg" viewBox="0 0 126.79 105.82">
  <defs>
    <style>
      .cls-1 {
        fill: #2d3b22;
      }
    </style>
  </defs>
  <g id="planter">
    <path id="tang_2" class="cls-1" d="M70.64,105.43c1.34.2,3.39.52,6.14.33,2.05-.14,6.47-.43,10.6-3.13.17-.11,2.2-1.86,6.25-5.36,1.65-1.42,2.68-2.32,4.35-3.01,2.49-1.03,3.08.11,5.13-.89,2.72-1.33,4.17-4.31,4.46-4.91.45-.92.3-.93.67-1.56,1.26-2.17,3.37-2.7,5.02-3.57,4.43-2.33,6.14-7.35,6.36-8.04,1.03-3.18-.4-3.44.67-7.26.45-1.62,1.57-3.65,3.8-7.7,1.91-3.48,2.31-3.93,2.57-5.36.05-.26.56-3.4-1.12-6.47-.39-.72-1.2-2.21-2.12-2.12-.72.07-1.17,1.07-1.67,2.23-.99,2.27-.47,2.86-1.34,4.58-.28.56-1.03,2-2.57,2.9-.57.34-.63.23-2.12.89-1.59.71-2.39,1.06-2.79,1.56-.46.58-.34.92-.67,3.24-.32,2.23-.49,3.36-1,4.02-.69.89-1.2.59-3.13,1.67-1.27.72-2.95,1.66-3.8,3.35-.34.68-.26.9-.56,3.91-.3,3-.46,4.51-.78,5.13-1.12,2.17-3.51,3.22-4.58,3.68-1.34.59-1.71.44-3.35,1.23-1.27.61-2.24,1.08-3.13,2.01-1.48,1.54-.89,2.43-2.34,4.02-1.29,1.41-2.86,1.93-3.46,2.12-1.4.44-2.49.39-3.46.33-.74-.04-1.8-.11-1.93-.56-.09-.32.32-.69.39-.75.51-.46,1.08-.36,1.62-.5.9-.23,1.41-1.05,1.9-1.84.92-1.49.45-2.25,1.06-4.52.41-1.55.76-2.85,1.84-3.8.74-.64,1.38-.74,4.46-1.34,3-.59,4.5-.88,4.74-1,3.1-1.57,4.16-5.39,4.41-6.47.1-.43.08-.46.28-4.52.25-5.04.3-5.39.39-5.8.34-1.64.9-4.28,3.01-6.14,1.37-1.2,2.9-1.64,5.92-2.51,2.32-.67,2.64-.46,4.02-1.12,1.17-.56,3.19-1.51,4.13-3.68.82-1.88.39-3.68.17-4.63-.45-1.89-1.41-3.09-1.9-3.68-.54-.65-.93-1.12-1.62-1.34-.38-.12-.76-.14-2.57.17-1.86.32-1.74.38-2.18.39-1.05.02-1.26-.36-3.29-1.12-2.05-.76-3.41-.95-3.85-1-1.29-.16-2.05-.08-2.23-.06-.75.09-1.78.22-2.68.95-.16.13-.57.48-1.28,1.84-.78,1.49-1.17,2.72-1.23,2.9-.81,2.61-1.33,4.32-1.79,6.92-.61,3.52-.71,6.5-.73,7.81-.02,1.26.01,2.77-.45,4.8-.52,2.3-1.18,3.12-1.56,3.52-.5.52-.49.27-2.46,1.62-1.45.99-2.17,1.49-2.73,1.95-.96.79-1.36,1.26-1.67,1.12-.32-.14-.25-.78-.28-1.73,0-.28-.19-1.44-.56-3.74-.49-3.11-.65-2.68-.67-3.68-.04-2.13.67-3.77.95-4.41.27-.62.82-1.41,1.9-2.96,1.9-2.73,2.26-3.03,2.96-4.3.45-.81,1.1-1.99,1.45-3.4.55-2.22.03-3.66-.5-6.59-.83-4.58-1.24-6.87-.67-8.65.72-2.25,2.64-5,3.91-6.81.39-.56.72-1,1.06-1.73.28-.6,1.03-2.38.78-5.64-.12-1.64-.43-5.69-3.4-9.49-.88-1.13-2.44-3.07-5.13-4.02-.83-.29-2.12-.73-3.68-.39-1.64.36-2.66,1.37-3.4,2.12-.77.78-1.96,2.23-2.85,5.08-1.1,3.53-.92,6.52-.78,8.37.28,3.91,1.42,8.37,2.34,10.99.13.36.42,1.16.61,2.29.43,2.47.02,4.43-.06,4.8-.16.76-.34,1.16-2.57,5.47-1.63,3.15-1.7,3.25-1.84,3.74-.49,1.66-.39,3.16-.17,6.08.08,1.03.22,2.98.67,5.47.28,1.55.27,3.16.67,4.69.09.36.31,1.13.06,2.01-.04.15-.17.56-.84,1.45-.67.91-.86.91-1.73,1.95-.9,1.07-1.35,1.62-1.4,2.18-.03.34.02.77-.24.93-.16.1-.41.09-.54-.04-.19-.19-.03-.54,0-.92.04-.65-.33-1.13-.63-1.59-.13-.21-1.35-2.12-1.42-3.89-.03-.88.23-1.52.75-2.8.74-1.8,1.19-1.77,1.55-3.01.39-1.37.17-2.57-.04-3.73-.32-1.74-.76-2.03-1.05-3.39-.07-.35-.35-1.78.29-4.56.86-3.73,2.06-4.24,3.1-7.45.3-.92,1.21-3.86.75-7.45-.45-3.6-2.11-6.58-2.8-7.83-1.21-2.17-1.89-2.66-2.34-4.48-.36-1.46-.25-2.74,0-5.23.37-3.81.91-4.3.84-6.82-.06-1.84-.12-3.28-1.09-4.77-1.38-2.11-3.56-2.73-3.85-2.8-.13-.04-2.77-.69-5.23.8-2.95,1.78-3.53,5.37-3.81,7.07-.96,5.94,2.16,11.78,2.47,12.31.05.08.26.42.42.92.25.77.22,1.42.21,1.67-.08,1.57-.98,3.1-1,3.14-1.41,2.39-1.33,6.26-1.3,7.62,0,0,.1,4.72,3.77,12.22.04.08.17.34.29.71,0,0,.39,1.17.29,2.47-.11,1.39-.81,2.48-1.47,3.6-.79,1.36-2.15,3.71-2.72,5.94-.14.54-.6,2.53-.17,4.9.38,2.08,1.15,2.78,4.65,8.96.09.16.72,1.28,1.38,2.8.96,2.22.43,1.71.92,2.6.13.24.45.78.29,1.34-.01.05-.11.4-.29.42-.29.03-.59-.74-.67-.92-.77-1.83-3.61-4.09-5.78-7.2-.31-.45-1.7-2.48-2.64-5.15-1.31-3.75-1.09-6.91-.71-12.1.25-3.4-.24-6.89.54-10.21.01-.06.43-1.8-.29-3.1-.13-.24-.31-.47-.59-.63-.61-.34-1.4-.14-1.8.08-1,.56-.98,1.99-1.34,4.69-.35,2.65-.41,1.65-.8,4.56-.46,3.51-.75,5.7-.59,8.46.1,1.71.32,5.02,1.93,8.71,1.46,3.35,2.1,2.52,4.94,7.74,1.26,2.33,2.7,4.97,3.6,6.86.57,1.2,1,2.27,1.59,2.85.37.36.5.6.75,1.09.2.38.2.48.17.54-.16.33-1.27.17-1.88,0-2.6-.73-4.02-3.79-4.4-4.6-.7-1.52-.32-1.48-1.13-3.26-1.01-2.21-2.23-3.64-2.55-4.02-.26-.3-.98-.98-2.43-2.34-2-1.89-2.12-1.95-2.43-2.34-.3-.38-1.17-1.6-1.55-4.35-.5-3.71.56-5.32,1.17-11.01.13-1.22.28-2.65.29-4.48.02-4.43-.8-7.73-1.76-11.43-.82-3.17-1.69-5.44-3.43-9.96-.77-1.99-1.83-4.62-4.1-7.07-1.19-1.28-2.21-1.98-3.47-2.22-.32-.06-1.9-.33-3.47.54-1.5.83-2.11,2.21-2.64,3.43-.56,1.3-1.13,3.26-1,6.36.06,1.41.32,4.82,2.22,9.08.44,1,.61,1.23,4.86,8.12,2.73,4.44,2.81,4.59,2.97,5.02,1.69,4.55.84,9.08.54,10.59-.35,1.76-.58,1.79-1.21,4.73-.6,2.79-.9,4.23-.75,6.11.16,2.03.72,3.64,1.09,4.69.51,1.45.76,2.17,1.26,2.8.39.5.94,1.03.8,1.26-.1.17-.53.07-.67.04-2.44-.54-4.44-2.89-4.44-2.89-2.73-3.22-4.1-4.83-4.98-6.57-2.13-4.24-1.05-5.04-2.93-10.46-1.58-4.55-2.91-8.36-6.4-10.51-1.54-.94-2.59-1.01-5.23-2.76-1.61-1.07-2.92-1.94-4.23-3.47-2.6-3.05-3.93-6.53-3.93-6.53-.37-.97-.68-1.99-1.67-2.6-.76-.46-1.9-.66-2.85-.17-1.15.6-1.42,1.93-1.55,2.6-.1.49-.4,2.34,1.17,5.15.6,1.08,1.46,2.26,4.19,4.65,3.97,3.48,4.85,3.34,7.12,5.82.58.63,2.08,2.34,3.43,4.86,1.1,2.05,1.22,2.97,3.01,7.7.94,2.47,1.4,3.7,1.93,4.86,1.3,2.88,3.41,6.83,4.6,8.62.57.85.95,1.82,1.51,2.68.18.27.38.57.29.67-.17.2-1.41-.64-2.05-1.05-1.53-.97-3.07-1.49-6.15-2.55-3.37-1.16-3.29-.72-5.86-1.76-2.22-.89-3.33-1.34-4.44-2.34-.86-.78-1.36-1.53-2.8-2.51-1.01-.69-1.67-.93-2.34-1-.3-.03-1.16-.11-2.09.33-.43.21-1.13.55-1.47,1.34-.43,1.02.09,2,.17,2.13.4.71,1.06,1.04,1.3,1.17.61.32.32.28,3.89,3.6,3.1,2.88,2.2,1.86,5.53,4.9,1.35,1.23,2.04,1.89,3.31,2.43.57.24,1.16.41,3.31.8,3.08.54,3.36.45,4.27.67,1.76.41,2.55,1.18,6.19,4.1,3.09,2.48,4.64,3.72,5.48,4.27,2.56,1.68,4.98,2.51,8.5,3.43,10.34,2.71,14.58,2.13,28.53,4.21Z"/>
  </g>
</svg>