<?xml version="1.0" encoding="UTF-8"?>
<svg id="Layer_2" xmlns="http://www.w3.org/2000/svg" viewBox="0 0 210.56 153.92">
  <defs>
    <style>
      .cls-1 {
        fill: #474747;
      }

      .cls-2 {
        fill: #7da45f;
      }

      .cls-3 {
        fill: #2d3b22;
      }

      .cls-4 {
        fill: #616161;
      }

      .cls-5 {
        fill: #567041;
      }

      .cls-6 {
        fill: #7b7b7b;
      }
    </style>
  </defs>
  <g id="planter">
    <g>
      <path class="cls-3" d="M79.38,117.59c.84-1.41-.26-2.7-.99-6.71-.68-3.71-.47-6.62-.33-8.58.17-2.4.48-6.71,2.64-11.43,1.09-2.39,1.88-3.18,2.31-5.5.44-2.37-.03-3.45.33-5.94.18-1.26.6-3.47,1.98-5.72,1.43-2.32,2.45-2.29,4.18-4.73.49-.69,1.86-2.62,2.42-5.06,1.09-4.77-1.41-9.4-2.86-12.09-1.49-2.76-2.39-3.3-3.08-5.83-.33-1.19-.95-3.61-.11-6.27.17-.52.42-1.17,2.42-4.07,2.49-3.62,2.73-3.55,3.41-4.73,2.6-4.49,1.52-9.61,1.43-10.01-.27-1.22-1.28-3.19-3.3-7.15-.85-1.67-1.58-3.03-2.09-3.96-.72,0-1.94.08-3.19.77-1.36.75-2.03,1.8-2.75,2.97-.79,1.28-2.2,3.57-2.31,6.71-.09,2.61.83,2.82.88,6.27.03,1.86.05,3.26-.66,4.84-.68,1.51-1.86,2.53-4.18,4.51-2.62,2.23-3.12,2.12-3.85,3.3-1.35,2.19-.96,4.72-.77,5.94.48,3.11,1.73,3.4,3.52,7.81,1.18,2.89,1.94,4.77,1.76,7.37-.06.82-.34,4.28-2.86,6.93-1.41,1.48-1.95,1.06-2.75,2.2-1.95,2.77-.81,8.21,2.2,11.21,1.75,1.75,3.24,1.77,3.63,3.41.33,1.4-.42,2.77-1.65,4.95-1.08,1.91-1.69,2.43-2.64,3.85-.24.36-2.39,3.63-3.08,7.37-.48,2.6.22,2.87.66,8.25.57,6.88-.4,8.47,1.1,9.9,2.2,2.08,7.25,1.48,8.58-.77Z"/>
      <path class="cls-5" d="M89.94,117.81c.56-1.85-1.5-4.17-3.08-5.94-1.05-1.18-2.08-2.3-3.74-2.75-1.57-.42-2.03.21-4.51.33-1.49.07-4.25.21-6.71-1.32-1.6-1-2.45-2.31-3.3-3.63-1.59-2.47-.93-3.21-2.2-5.28-.26-.42-2.48-3.93-6.16-4.62-1.53-.28-1.62.24-5.39.33-2.47.06-3.7.09-4.73-.22-3.35-1.01-5.14-4.42-6.05-6.16-1.4-2.67-.86-3.28-2.86-7.48-1.27-2.66-2.06-3.61-3.19-4.18-1.4-.7-2.83-.57-4.18-.44-2.18.21-2.72.83-5.17,1.43-1.91.47-3.67.9-5.61.55-1.55-.28-3.1-1.44-6.16-3.74-3.71-2.8-3.83-3.3-5.61-4.07-2.85-1.23-5.2-1.06-5.94-.99-1.01.1-2.72.3-4.29,1.54-.51.4-.87.81-1.1,1.1,1.31,2.39,2.37,4.33,3.08,5.61,3.64,6.61,4.29,7.71,5.83,8.91.64.5,3.4,2.58,7.15,2.75,2.48.11,3.16-.72,6.93-.77,2.69-.03,4.04-.05,5.39.77,1.4.85,1.79,1.96,3.74,5.94,1.62,3.31,2.43,4.96,2.86,5.61.85,1.29,3.67,5.56,8.8,7.15,2.45.76,4.72.69,5.5.66,2.73-.1,3.45-.79,5.39-.77,3.1.03,5.44,1.82,6.93,2.97,4.9,3.77,3.76,7.05,7.59,9.24,2.08,1.19,4.47,1.05,9.24.77,4.89-.29,10.74-.63,11.54-3.3Z"/>
      <path class="cls-3" d="M92.03,117.37c-1.27-1.33-.87-3.41-.66-4.51.3-1.58.99-2.66,1.76-3.85,1.05-1.61,1.42-1.62,2.97-3.63,1.72-2.22,2.58-3.37,2.64-4.84.04-1.11-.34-1.95-.99-3.41-.91-2.04-1.44-2-2.09-3.63-.34-.84-1.22-3.05-.33-4.95.34-.72.64-.79,2.09-2.2,0,0,1.65-1.61,3.19-3.52.87-1.09,2.14-2.65,3.08-4.95.51-1.24,1.45-3.53,1.21-6.38-.21-2.49-1.07-2.48-1.76-6.05-.33-1.7-.65-3.49-.22-5.61.42-2.05,1.36-3.46,2.09-4.51,2.98-4.29,4.89-6.04,8.69-10.99.64-.83,2.15-2.84,3.19-5.72.6-1.67.83-3.06.44-4.51-.24-.87-.52-1.11-.88-1.87-1.19-2.55-.48-5.31,0-7.15.17-.66.84-3.07,2.75-5.61,1.26-1.67,2.54-2.68,5.06-4.62,1.9-1.46,3.56-2.56,4.73-3.3.65.37,1.59,1.02,2.42,2.09,1.51,1.94,1.68,4.03,1.76,5.17.34,4.89-2.51,8.71-2.75,9.02-1.25,1.63-2.12,1.91-2.75,3.63-.77,2.11-.34,4.11-.22,4.62.33,1.35.75,1.56,1.87,3.85,1.08,2.2,1.62,3.3,1.76,4.4.37,2.9-1.35,5.38-2.42,6.93-1.05,1.51-2.08,2.42-4.07,4.18-2.73,2.41-3.45,2.49-4.51,3.63-2.43,2.59-2.07,5.76-2.53,9.24-1.15,8.68-5.92,7.89-8.47,18.14-2,8.04-2.09,12.64-2.09,12.64-.05,2.39.11,5.24-1.76,7.59-.51.64-.54.45-3.19,3.08-1.91,1.89-2.87,2.85-3.3,3.63-.88,1.59-.71,2.4-1.87,3.63-.48.51-1.15,1.2-2.2,1.32-1.49.18-2.58-.93-2.64-.99Z"/>
      <path class="cls-2" d="M99.94,119.57c-2.61-.83-3.14-1.62-3.3-1.87-.57-.93-.17-1.44-.77-2.42-.64-1.04-1.71-1.45-2.86-1.87-1.95-.72-2.81-.49-4.73-.88-.33-.07-2.5-.52-4.62-1.76-3.18-1.85-4.74-4.58-5.06-5.17-.98-1.79-1.15-3.95-1.54-8.25-.38-4.2-.11-5.18-.88-7.7-.58-1.88-1.12-3.57-2.64-4.84-1.7-1.42-3.08-1.01-5.94-1.87-3.74-1.12-6.18-3.25-7.37-4.29-2.02-1.76-5.13-4.48-5.61-8.36-.13-1.07.02-1.57-.22-4.4-.2-2.36-.29-3.53-.55-4.4-.83-2.81-3.06-4.47-5.39-6.16-3.89-2.82-4.87-1.87-7.26-4.18-2.43-2.35-3.33-5.18-3.85-6.82-.99-3.11-.93-5.67-.88-7.04.1-2.95.75-5.34,1.32-6.93.23.77.66,1.89,1.54,2.97,1.77,2.17,3.78,2.25,7.04,3.63,1.78.75,5.93,2.55,8.91,6.38,1.02,1.31,2.29,2.95,2.53,5.28.15,1.43-.21,1.98.11,3.41.47,2.09,1.81,3.46,2.53,4.18,2.32,2.32,3.6,1.74,6.38,3.63.42.29,4.37,3.06,5.94,7.81.89,2.69.03,3.05,1.1,5.83.4,1.05,1.54,3.91,4.29,5.94,1.94,1.43,2.5.83,5.83,2.42,2.57,1.23,4.91,2.35,6.6,4.73,1.9,2.68,2.15,5.8,2.31,7.7.19,2.29-.19,2.79.22,5.17.34,1.97.68,3.83,2.09,5.28.86.89,1.12.58,3.96,2.09.49.26,2.75,1.47,5.28,3.41,1.6,1.23,2.41,1.84,2.75,2.53,1.25,2.51.05,6.61-2.42,7.59-1.08.43-2.33.03-4.84-.77Z"/>
      <path class="cls-5" d="M110.5,125.06c1.75-1.08.2-3.57,2.53-7.7.59-1.04,1.71-2.38,3.96-5.06,2.5-2.98,2.51-2.69,2.97-3.52,1.95-3.54,1.02-7.61.77-8.69-.39-1.69-.6-1.27-2.53-6.16-1.84-4.67-1.86-5.6-1.76-6.38.31-2.48,1.95-4.54,2.53-5.28.96-1.21,1.17-1.05,1.87-1.98,2.17-2.89,1.73-6.64,1.65-7.26-.3-2.24-1.11-2.76-3.3-6.93-1.95-3.73-2.93-5.59-3.3-7.37-.89-4.33.4-8.59,1.43-11.98.93-3.05,1.72-4.27,1.43-6.6-.07-.52-.3-2.03-2.42-5.39-3.32-5.26-5.06-5.22-5.94-8.14-.28-.91-.13-.99.66-7.92.78-6.85.8-8.2.33-10.01-.32-1.24-.88-3.44-2.75-5.5-1.87-2.06-4.06-2.9-5.17-3.24.29.9.63,2.25.66,3.9.01.76-.16,2.03-.66,4.4-.84,3.98-2.13,3.9-2.42,6.71-.26,2.48.53,4.72.99,6.05.78,2.23,1.56,3,1.65,4.95.02.48.03,1.59-.66,3.63-.91,2.67-1.94,3.72-4.62,7.92-2.38,3.73-2.74,4.72-2.75,5.94,0,1.58.59,2.8,1.32,4.07,2.66,4.64,5,6.36,7.26,9.35,1.33,1.76,4.08,5.39,4.73,10.44.7,5.46-1.37,10.1-2.09,11.65-1.5,3.25-2.55,3.5-4.18,7.37-.88,2.09-1.93,4.58-2.09,7.7-.18,3.52.96,4.04,3.19,13.08,1.29,5.24,1.31,6.69.88,8.25-.81,2.93-2.51,3.65-2.2,5.5.5,3.01,5.75,5.58,8.03,4.18Z"/>
      <path class="cls-2" d="M126.22,127.04c0-2.21-1.57-2.72-2.75-5.39-.2-.46-1.98-4.66-.11-8.25.19-.37,1.06-2.02,2.86-3.08,1.45-.85,2.34-.62,4.18-1.76.98-.61,1.71-1.06,2.2-1.87.91-1.52.27-3.14-.44-6.27-.61-2.71-1.09-4.85-1.1-7.26,0-1.92-.01-5.02,1.87-7.7.97-1.38,1.38-1.13,4.51-4.07,2.19-2.05,3.28-3.08,3.85-4.07,1.71-2.98,1.02-6.35.33-9.68-.9-4.37-2.01-4.65-3.08-9.9-.91-4.49-.48-6.14.11-7.26.84-1.6,1.82-1.74,3.74-3.52.55-.51,3.6-3.39,4.95-7.26,1.31-3.76.56-7.11-.33-11.1-.76-3.41-1.89-6.07-2.75-7.81-.76.03-1.9.16-3.19.66-.49.19-2.61,1.07-4.29,3.3-1.76,2.34-2,4.81-2.09,5.94-.24,2.86.71,3.14.44,6.16-.13,1.5-.33,3.7-1.87,5.39-.87.96-1.24.73-3.85,2.31-2.25,1.36-3.5,2.12-4.51,3.41-1.71,2.19-1.84,4.74-1.87,5.5-.1,2.6.9,3.33,2.75,9.24.82,2.62,1.23,3.96,1.21,5.17-.07,4.03-2.57,7.05-2.75,7.26-1.56,1.83-2.49,1.67-3.96,3.85-.51.75-1.35,2.02-1.65,3.85-.31,1.9.12,3.41.55,4.84,1.01,3.37,2.12,3.29,2.53,5.83.17,1.05.35,3.34-.88,5.39-.55.91-1.04,1.22-1.98,2.09-1.93,1.79-4.52,4.2-5.06,7.26-.42,2.37.46,4.78.88,5.94.64,1.75,1.31,2.52,1.32,4.18,0,.44-.03,2.01-.99,3.52-1.37,2.16-3.12,1.8-4.73,3.52-1.68,1.8-2.47,5.07-1.32,7.04,1.96,3.33,8.93,1.82,11.65.88,2.97-1.02,4.08-2.45,4.51-3.08.3-.45,1.09-1.63,1.1-3.19Z"/>
      <path class="cls-5" d="M129.74,123.74c1.05-1.17.96-1.76,2.09-2.75,1.23-1.08,2.04-.99,3.19-1.65,2.15-1.23,2.93-3.59,3.74-6.05,1-3.03-.03-3.51.77-7.37.47-2.25.83-3.99,2.09-5.72,1.63-2.24,3.83-3.19,7.37-4.73,3.98-1.73,4.3-1.1,5.83-2.31,2.87-2.28,3.59-6.02,4.07-8.47.11-.59.26-2.74.55-7.04.29-4.29.28-4.89.77-6.05.6-1.41,1.1-1.64,3.63-5.06,1.6-2.16,2.4-3.24,2.64-3.74,1.51-3.11,1.63-6.94,1.76-10.88,0-.15.02-.81.22-1.65.16-.68.43-1.79,1.21-2.64.57-.62,1.07-.72,1.76-1.1,1.91-1.04,3.2-3,3.63-4.51.34-1.19-.14-1.11-.33-4.29-.03-.55-.05-1.17.11-6.38.04-1.38.08-2.52.11-3.3-.28.34-.75.82-1.43,1.21-1.11.64-1.91.52-3.3.77-1.21.22-2.9.53-4.07,1.65-.94.9-1.18,1.99-1.54,3.63-.61,2.75.04,3.3-.44,5.61-.27,1.31-.72,3.5-2.42,4.95-1.61,1.37-2.65.65-5.5,2.31-.94.55-2.15,1.25-3.08,2.53-1.15,1.58-1.24,3.16-1.43,5.61-.45,5.82-.68,8.75-1.21,10.12-.35.91-1.55,3.72-4.4,5.94-2.4,1.87-4.92,2.5-5.5,2.64-1.81.43-1.97.07-3.3.55-.16.06-3.61,1.36-4.62,4.4-.43,1.28-.15,2.06.11,4.18.21,1.74.75,6.1-.22,10.34-.32,1.42-.91,3.9-2.75,6.38-1.88,2.53-2.98,2.27-4.73,4.73-1.45,2.03-1.89,3.9-2.64,7.04-.78,3.28-1.3,5.45-.66,8.14.16.69,1.19,5.03,3.63,5.39,1.87.27,3.84-1.92,4.29-2.42Z"/>
      <path class="cls-2" d="M137.91,124c1.2-1.04,1.12-2.12,2.79-3.23,1.43-.95,2.43-.77,3.96-1.17,4.43-1.16,6.98-5.54,7.33-6.16,1.71-3.01.62-4.18,2.64-6.89.43-.57,1.82-2.39,4.25-3.52,2.46-1.13,3.31-.32,6.6-1.47,1.73-.6,3.25-1.13,4.54-2.49,1.1-1.15,1.03-1.85,2.79-6.45,1.07-2.8,1.61-4.22,2.2-4.98,1.98-2.59,4.84-3.57,6.01-3.96,2.65-.87,3.11-.17,6.89-1.03,3-.68,4.55-1.04,5.86-2.35,1.63-1.62,1.92-3.74,2.35-6.89.62-4.59-.41-5.42.73-7.77,1.03-2.13,2.85-3.44,4.4-4.54,2.35-1.68,2.83-1.22,4.69-2.64,1-.76,4-3.05,4.54-6.89.4-2.8-.7-5.08-1.32-6.16-1.04.14-2.57.37-4.4.73-4.76.95-7.14,1.43-9.53,2.93-1.05.66-3.75,2.36-5.28,5.57-.9,1.88-.5,2.4-1.76,6.89-.86,3.06-1.31,4.61-2.2,5.57-1.54,1.67-3.59,2.13-6.45,2.79-2.94.67-3.04.19-5.57.73-1.55.34-5.12,1.15-8.36,3.96-1.32,1.15-3.41,2.96-4.1,5.86-.5,2.07.27,2.4-.15,4.84-.6,3.48-2.68,5.84-3.37,6.6-1.51,1.66-2.98,2.47-5.72,3.96-2.21,1.21-3.31,1.81-4.84,2.2-1.32.34-2.14.34-3.19,1.06-.41.28-1.55,1.15-2.09,2.64-.27.76-.15,2.06.11,4.62.31,3.04.36,3.56,0,4.29-.61,1.23-1.88,2.03-1.98,2.09-.46.28-.89.45-1.21.55-.51.12-1.24.32-2.09.66-3.09,1.24-4.96,3.24-5.72,4.07-.9.99-1.41,1.78-2.31,3.19-.7,1.1-1.06,1.66-.99,1.98.38,1.82,6.92,3.42,9.93.81Z"/>
      <path id="stone1" class="cls-1" d="M101.63,116.89c-4.63-1.43-5.24-.33-14.66-1.32-6.85-.72-7.23-1.37-11.58-1.32-4.2.05-8.03.15-11.73,2.64-1.07.72-4.14,2.79-5.28,6.6-.68,2.27-.21,4.39.73,8.65.93,4.2,1.49,6.59,3.52,8.65,1.63,1.65,3.46,2.34,4.84,2.79,11.37,3.68,23.16,2.49,23.16,2.49,11.29-1.14,22.18-2.23,24.48-8.5.75-2.04.77-5.1.15-7.77-.16-.69-.86-3.47-3.08-6.3-3.38-4.32-7.99-5.81-10.55-6.6Z"/>
      <path id="stone_3" class="cls-4" d="M154.84,122.17c2.67,1.54,4.17,3.38,6.3,6.01,1.92,2.37,2.88,3.55,3.52,5.42.41,1.22,1.59,4.7-.15,7.62-1.11,1.87-2.9,2.62-4.69,3.37-.79.33-2.73,1.07-9.97,1.32-.89.03-3.76.12-7.92,0-4.25-.12-6.37-.18-7.33-.44-1.35-.36-2.62-.94-10.12-7.92-4.75-4.42-6.07-5.89-5.86-7.77.13-1.13.76-2.03,1.91-3.66.95-1.36,2.07-2.95,3.81-3.81,1.33-.66,1.94-.36,5.86-.29,5.99.1,5.89-.56,9.68-.15,1.61.17,2.41.38,3.81.15,2.29-.38,2.81-1.38,4.54-1.76,2.38-.52,4.5.7,6.6,1.91Z"/>
      <path id="stone2" class="cls-6" d="M138.57,148.56c-.96,1.83-2.86,2.9-3.96,3.52-2.81,1.58-5.5,1.71-6.89,1.76-8.27.29-13.24-.24-19.94-.29,0,0-9.05-.07-15.98-2.35-.39-.13-1.33-.45-2.05-1.32-1.37-1.65-.92-4.07-.44-6.45.25-1.26,1.17-5.28,4.4-9.68,1.57-2.13,2.54-3.42,4.25-3.81,1.39-.32,2.11.22,4.69.44,1.82.16,2.22-.05,4.98-.15,6.22-.23,7,.69,10.26-.15,2.67-.68,2.41-1.36,4.25-1.61,4.52-.61,8.51,3.17,10.12,4.69,3.61,3.42,8.81,10.64,6.3,15.39Z"/>
    </g>
  </g>
</svg>