<?xml version="1.0" encoding="UTF-8"?>
<svg id="Layer_2" xmlns="http://www.w3.org/2000/svg" viewBox="0 0 632.51 462.37">
  <defs>
    <style>
      .cls-1 {
        fill: #474747;
      }

      .cls-2 {
        fill: #7da45f;
      }

      .cls-3 {
        fill: #2d3b22;
      }

      .cls-4 {
        fill: #616161;
      }

      .cls-5 {
        fill: #567041;
      }

      .cls-6 {
        fill: #7b7b7b;
      }
    </style>
  </defs>
  <g id="planter">
    <g>
      <path class="cls-3" d="M394.05,353.23c-2.51-4.25.78-8.12,2.97-20.15,2.04-11.15,1.41-19.87.99-25.76-.52-7.22-1.44-20.16-7.93-34.35-3.28-7.18-5.64-9.55-6.94-16.51-1.32-7.13.09-10.35-.99-17.83-.54-3.79-1.79-10.42-5.94-17.17-4.28-6.96-7.35-6.89-12.55-14.2-1.47-2.06-5.59-7.86-7.27-15.19-3.28-14.34,4.22-28.25,8.59-36.33,4.47-8.28,7.17-9.91,9.25-17.5.98-3.58,2.87-10.85.33-18.83-.5-1.57-1.28-3.5-7.27-12.22-7.48-10.88-8.19-10.66-10.24-14.2-7.82-13.49-4.56-28.86-4.29-30.05.82-3.65,3.85-9.59,9.91-21.47,2.55-5,4.75-9.1,6.28-11.89,2.16-.02,5.83.25,9.58,2.31,4.08,2.24,6.09,5.41,8.26,8.92,2.38,3.85,6.62,10.71,6.94,20.15.26,7.85-2.49,8.48-2.64,18.83-.08,5.57-.15,9.8,1.98,14.53,2.04,4.55,5.57,7.61,12.55,13.54,7.88,6.7,9.38,6.36,11.56,9.91,4.05,6.58,2.88,14.19,2.31,17.83-1.44,9.34-5.19,10.22-10.57,23.45-3.53,8.69-5.82,14.32-5.28,22.13.17,2.45,1.03,12.85,8.59,20.81,4.23,4.46,5.86,3.19,8.26,6.61,5.85,8.32,2.42,24.67-6.61,33.69-5.25,5.25-9.72,5.33-10.9,10.24-1,4.19,1.25,8.31,4.95,14.86,3.24,5.74,5.08,7.3,7.93,11.56.73,1.09,7.18,10.91,9.25,22.13,1.44,7.8-.65,8.63-1.98,24.77-1.71,20.67,1.21,25.46-3.3,29.72-6.6,6.25-21.77,4.44-25.76-2.31Z"/>
      <path class="cls-5" d="M362.34,353.89c-1.68-5.57,4.51-12.52,9.25-17.83,3.15-3.53,6.24-6.91,11.23-8.26,4.71-1.27,6.09.63,13.54.99,4.48.22,12.77.62,20.15-3.96,4.82-2.99,7.36-6.94,9.91-10.9,4.78-7.42,2.79-9.64,6.61-15.85.77-1.26,7.46-11.82,18.5-13.87,4.6-.86,4.86.71,16.18.99,7.41.18,11.11.27,14.2-.66,10.07-3.05,15.43-13.28,18.17-18.5,4.21-8.02,2.57-9.86,8.59-22.46,3.82-7.99,6.19-10.85,9.58-12.55,4.21-2.12,8.49-1.71,12.55-1.32,6.54.62,8.16,2.48,15.52,4.29,5.75,1.42,11.02,2.72,16.84,1.65,4.64-.85,9.32-4.32,18.5-11.23,11.16-8.41,11.49-9.92,16.84-12.22,8.57-3.69,15.62-3.2,17.83-2.97,3.05.31,8.17.9,12.88,4.62,1.52,1.2,2.6,2.42,3.3,3.3-3.93,7.17-7.13,12.99-9.25,16.84-10.95,19.87-12.89,23.16-17.5,26.75-1.93,1.5-10.2,7.76-21.47,8.26-7.46.33-9.5-2.18-20.81-2.31-8.09-.1-12.13-.15-16.18,2.31-4.21,2.55-5.38,5.9-11.23,17.83-4.87,9.93-7.3,14.9-8.59,16.84-2.57,3.89-11.03,16.7-26.42,21.47-7.35,2.28-14.19,2.07-16.51,1.98-8.21-.31-10.37-2.36-16.18-2.31-9.33.08-16.33,5.47-20.81,8.92-14.73,11.34-11.3,21.19-22.79,27.74-6.25,3.57-13.42,3.15-27.74,2.31-14.69-.86-32.25-1.88-34.68-9.91Z"/>
      <path class="cls-3" d="M356.07,352.57c3.82-4,2.62-10.25,1.98-13.54-.91-4.74-2.98-8-5.28-11.56-3.14-4.85-4.25-4.87-8.92-10.9-5.17-6.68-7.76-10.11-7.93-14.53-.12-3.32,1.01-5.86,2.97-10.24,2.74-6.12,4.32-6,6.28-10.9,1.01-2.54,3.66-9.16.99-14.86-1.01-2.15-1.93-2.37-6.28-6.61,0,0-4.95-4.82-9.58-10.57-2.63-3.26-6.42-7.97-9.25-14.86-1.53-3.74-4.35-10.61-3.63-19.16.63-7.47,3.22-7.44,5.28-18.17.98-5.1,1.96-10.49.66-16.84-1.26-6.15-4.09-10.38-6.28-13.54-8.94-12.89-14.7-18.16-26.09-33.03-1.91-2.5-6.47-8.54-9.58-17.17-1.8-5.02-2.5-9.19-1.32-13.54.71-2.61,1.57-3.33,2.64-5.61,3.58-7.66,1.43-15.96,0-21.47-.51-1.99-2.53-9.23-8.26-16.84-3.78-5.03-7.63-8.04-15.19-13.87-5.7-4.4-10.68-7.7-14.2-9.91-1.95,1.12-4.78,3.07-7.27,6.28-4.52,5.83-5.04,12.1-5.28,15.52-1.03,14.68,7.54,26.16,8.26,27.08,3.77,4.9,6.37,5.74,8.26,10.9,2.32,6.35,1.03,12.34.66,13.87-.98,4.04-2.25,4.7-5.61,11.56-3.24,6.62-4.87,9.93-5.28,13.21-1.11,8.72,4.06,16.17,7.27,20.81,3.15,4.54,6.25,7.28,12.22,12.55,8.19,7.23,10.35,7.49,13.54,10.9,7.29,7.78,6.21,17.29,7.6,27.74,3.46,26.09,17.77,23.71,25.43,54.5,6.01,24.15,6.28,37.98,6.28,37.98.14,7.19-.34,15.74,5.28,22.79,1.53,1.92,1.62,1.35,9.58,9.25,5.73,5.68,8.62,8.57,9.91,10.9,2.64,4.77,2.12,7.21,5.61,10.9,1.44,1.53,3.46,3.59,6.61,3.96,4.49.53,7.77-2.8,7.93-2.97Z"/>
      <path class="cls-2" d="M332.29,359.17c7.83-2.49,9.44-4.86,9.91-5.61,1.72-2.79.51-4.34,2.31-7.27,1.92-3.12,5.13-4.35,8.59-5.61,5.86-2.15,8.43-1.47,14.2-2.64.99-.2,7.51-1.58,13.87-5.28,9.55-5.57,14.23-13.77,15.19-15.52,2.95-5.37,3.45-11.86,4.62-24.77,1.14-12.61.32-15.56,2.64-23.12,1.74-5.66,3.36-10.73,7.93-14.53,5.12-4.27,9.25-3.04,17.83-5.61,11.23-3.36,18.56-9.77,22.13-12.88,6.06-5.29,15.4-13.45,16.84-25.1.4-3.2-.05-4.7.66-13.21.59-7.07.88-10.61,1.65-13.21,2.5-8.45,9.19-13.43,16.18-18.5,11.69-8.46,14.62-5.61,21.8-12.55,7.3-7.06,9.99-15.55,11.56-20.48,2.97-9.34,2.78-17.02,2.64-21.14-.29-8.87-2.26-16.04-3.96-20.81-.68,2.32-1.98,5.68-4.62,8.92-5.31,6.52-11.34,6.77-21.14,10.9-5.36,2.26-17.82,7.67-26.75,19.16-3.07,3.94-6.88,8.85-7.6,15.85-.44,4.29.64,5.93-.33,10.24-1.42,6.28-5.44,10.4-7.6,12.55-6.97,6.95-10.83,5.21-19.16,10.9-1.26.86-13.12,9.18-17.83,23.45-2.67,8.08-.1,9.15-3.3,17.5-1.2,3.14-4.63,11.76-12.88,17.83-5.84,4.3-7.52,2.49-17.5,7.27-7.72,3.69-14.74,7.05-19.82,14.2-5.7,8.05-6.47,17.41-6.94,23.12-.56,6.88.56,8.37-.66,15.52-1.01,5.92-2.03,11.5-6.28,15.85-2.59,2.66-3.35,1.74-11.89,6.28-1.46.77-8.25,4.42-15.85,10.24-4.82,3.69-7.23,5.53-8.26,7.6-3.75,7.53-.16,19.85,7.27,22.79,3.24,1.28,7.01.09,14.53-2.31Z"/>
      <path class="cls-5" d="M300.58,375.69c-5.27-3.24-.6-10.71-7.6-23.12-1.77-3.13-5.14-7.15-11.89-15.19-7.5-8.94-7.55-8.08-8.92-10.57-5.86-10.65-3.06-22.85-2.31-26.09,1.16-5.06,1.81-3.8,7.6-18.5,5.52-14.03,5.58-16.81,5.28-19.16-.94-7.45-5.85-13.64-7.6-15.85-2.87-3.62-3.53-3.17-5.61-5.94-6.52-8.68-5.2-19.95-4.95-21.8.89-6.72,3.34-8.29,9.91-20.81,5.87-11.2,8.81-16.8,9.91-22.13,2.69-13.01-1.2-25.8-4.29-36-2.79-9.17-5.17-12.82-4.29-19.82.2-1.58.9-6.11,7.27-16.18,9.97-15.8,15.19-15.69,17.83-24.44.83-2.74.38-2.98-1.98-23.78-2.34-20.58-2.4-24.63-.99-30.05.97-3.73,2.63-10.32,8.26-16.51,5.63-6.2,12.2-8.72,15.52-9.74-.88,2.7-1.9,6.75-1.98,11.72-.04,2.29.49,6.08,1.98,13.21,2.51,11.97,6.4,11.7,7.27,20.15.77,7.45-1.58,14.17-2.97,18.17-2.34,6.7-4.67,9-4.95,14.86-.07,1.44-.1,4.79,1.98,10.9,2.73,8.03,5.81,11.19,13.87,23.78,7.16,11.19,8.24,14.19,8.26,17.83.02,4.74-1.78,8.41-3.96,12.22-7.99,13.94-15.01,19.11-21.8,28.07-4,5.28-12.26,16.19-14.2,31.38-2.1,16.41,4.12,30.33,6.28,35.01,4.5,9.77,7.67,10.52,12.55,22.13,2.64,6.27,5.79,13.75,6.28,23.12.55,10.58-2.88,12.14-9.58,39.3-3.88,15.73-3.93,20.1-2.64,24.77,2.43,8.79,7.53,10.97,6.61,16.51-1.5,9.03-17.27,16.76-24.11,12.55Z"/>
      <path class="cls-2" d="M253.35,381.63c-.03-6.64,4.72-8.17,8.26-16.18.61-1.39,5.96-13.99.33-24.77-.58-1.12-3.18-6.08-8.59-9.25-4.37-2.56-7.03-1.88-12.55-5.28-2.95-1.82-5.14-3.17-6.61-5.61-2.75-4.58-.8-9.42,1.32-18.83,1.83-8.13,3.28-14.58,3.3-21.8.01-5.76.04-15.08-5.61-23.12-2.91-4.14-4.14-3.39-13.54-12.22-6.57-6.16-9.85-9.24-11.56-12.22-5.14-8.94-3.05-19.08-.99-29.06,2.71-13.12,6.04-13.97,9.25-29.72,2.74-13.48,1.44-18.45-.33-21.8-2.53-4.8-5.46-5.23-11.23-10.57-1.66-1.54-10.8-10.18-14.86-21.8-3.94-11.28-1.69-21.37.99-33.36,2.29-10.23,5.69-18.23,8.26-23.45,2.28.08,5.72.47,9.58,1.98,1.46.57,7.85,3.22,12.88,9.91,5.28,7.03,5.99,14.44,6.28,17.83.71,8.59-2.13,9.44-1.32,18.5.4,4.49,1,11.1,5.61,16.18,2.61,2.87,3.72,2.19,11.56,6.94,6.76,4.09,10.5,6.36,13.54,10.24,5.14,6.56,5.53,14.23,5.61,16.51.29,7.8-2.71,10-8.26,27.74-2.47,7.88-3.7,11.9-3.63,15.52.22,12.11,7.73,21.17,8.26,21.8,4.68,5.5,7.47,5.01,11.89,11.56,1.53,2.26,4.05,6.08,4.95,11.56.94,5.71-.36,10.25-1.65,14.53-3.04,10.13-6.36,9.89-7.6,17.5-.52,3.17-1.05,10.05,2.64,16.18,1.65,2.73,3.14,3.66,5.94,6.28,5.8,5.39,13.57,12.61,15.19,21.8,1.26,7.13-1.37,14.35-2.64,17.83-1.91,5.25-3.93,7.57-3.96,12.55,0,1.33.1,6.05,2.97,10.57,4.12,6.48,9.37,5.4,14.2,10.57,5.04,5.39,7.43,15.24,3.96,21.14-5.89,10.01-26.82,5.46-35.01,2.64-8.92-3.07-12.27-7.35-13.54-9.25-.91-1.35-3.28-4.9-3.3-9.58Z"/>
      <path class="cls-5" d="M242.79,371.72c-3.17-3.53-2.9-5.29-6.28-8.26-3.69-3.24-6.13-2.98-9.58-4.95-6.45-3.68-8.79-10.78-11.23-18.17-3.01-9.1.1-10.55-2.31-22.13-1.41-6.76-2.49-11.98-6.28-17.17-4.89-6.72-11.5-9.59-22.13-14.2-11.94-5.18-12.93-3.29-17.5-6.94-8.63-6.86-10.8-18.08-12.22-25.43-.34-1.76-.78-8.22-1.65-21.14-.87-12.89-.84-14.7-2.31-18.17-1.8-4.24-3.3-4.93-10.9-15.19-4.8-6.48-7.2-9.72-7.93-11.23-4.53-9.34-4.9-20.84-5.28-32.7-.01-.45-.07-2.43-.66-4.95-.48-2.06-1.28-5.38-3.63-7.93-1.72-1.86-3.21-2.18-5.28-3.3-5.74-3.11-9.62-9-10.9-13.54-1.01-3.57.42-3.34.99-12.88.1-1.65.17-3.5-.33-19.16-.13-4.15-.25-7.57-.33-9.91.85,1.02,2.25,2.47,4.29,3.63,3.35,1.91,5.75,1.56,9.91,2.31,3.62.66,8.71,1.58,12.22,4.95,2.82,2.71,3.54,5.96,4.62,10.9,1.82,8.26-.11,9.92,1.32,16.84.81,3.94,2.17,10.5,7.27,14.86,4.83,4.13,7.96,1.95,16.51,6.94,2.83,1.65,6.45,3.76,9.25,7.6,3.45,4.74,3.73,9.48,4.29,16.84,1.35,17.47,2.05,26.29,3.63,30.39,1.05,2.73,4.66,11.17,13.21,17.83,7.2,5.61,14.77,7.52,16.51,7.93,5.43,1.28,5.93.22,9.91,1.65.49.18,10.83,4.07,13.87,13.21,1.28,3.86.45,6.19-.33,12.55-.64,5.23-2.24,18.33.66,31.05.97,4.26,2.75,11.71,8.26,19.16,5.63,7.61,8.94,6.8,14.2,14.2,4.35,6.11,5.68,11.72,7.93,21.14,2.35,9.87,3.9,16.36,1.98,24.44-.49,2.06-3.59,15.12-10.9,16.18-5.62.82-11.53-5.76-12.88-7.27Z"/>
      <path class="cls-2" d="M218.24,372.49c-3.6-3.12-3.38-6.38-8.37-9.69-4.3-2.85-7.31-2.32-11.89-3.52-13.3-3.49-20.97-16.65-22.02-18.5-5.12-9.05-1.86-12.55-7.93-20.7-1.28-1.72-5.45-7.19-12.77-10.57-7.39-3.41-9.95-.97-19.82-4.4-5.2-1.81-9.76-3.39-13.65-7.49-3.3-3.47-3.11-5.57-8.37-19.38-3.21-8.41-4.84-12.66-6.61-14.97-5.94-7.79-14.54-10.73-18.06-11.89-7.95-2.61-9.36-.5-20.7-3.08-9.02-2.05-13.67-3.11-17.61-7.05-4.89-4.88-5.76-11.25-7.05-20.7-1.88-13.78,1.22-16.29-2.2-23.34-3.11-6.4-8.57-10.32-13.21-13.65-7.05-5.06-8.49-3.66-14.09-7.93-2.99-2.28-12.01-9.15-13.65-20.7-1.19-8.4,2.09-15.27,3.96-18.5,3.12.42,7.71,1.1,13.21,2.2,14.3,2.86,21.45,4.29,28.62,8.81,3.16,1.99,11.26,7.1,15.85,16.73,2.69,5.65,1.49,7.22,5.28,20.7,2.59,9.19,3.93,13.84,6.61,16.73,4.63,5.01,10.78,6.41,19.38,8.37,8.83,2.01,9.14.56,16.73,2.2,4.67,1.01,15.39,3.45,25.1,11.89,3.98,3.46,10.24,8.9,12.33,17.61,1.49,6.23-.81,7.22.44,14.53,1.79,10.47,8.05,17.53,10.13,19.82,4.54,4.99,8.96,7.41,17.17,11.89,6.64,3.62,9.96,5.44,14.53,6.61,3.98,1.02,6.42,1.03,9.58,3.19,1.23.84,4.67,3.45,6.28,7.93.82,2.29.45,6.18-.33,13.87-.93,9.14-1.09,10.68,0,12.88,1.84,3.71,5.66,6.1,5.94,6.28,1.39.85,2.68,1.35,3.63,1.65,1.53.36,3.73.96,6.28,1.98,9.28,3.73,14.89,9.72,17.17,12.22,2.71,2.96,4.23,5.34,6.94,9.58,2.12,3.31,3.17,4.99,2.97,5.94-1.14,5.47-20.79,10.26-29.83,2.42Z"/>
      <path id="stone1" class="cls-1" d="M327.23,351.14c13.91-4.29,15.74-.99,44.04-3.96,20.57-2.16,21.71-4.13,34.79-3.96,12.63.16,24.13.46,35.23,7.93,3.21,2.16,12.44,8.38,15.85,19.82,2.03,6.81.62,13.2-2.2,25.98-2.78,12.6-4.47,19.8-10.57,25.98-4.88,4.95-10.4,7.03-14.53,8.37-34.16,11.05-69.58,7.49-69.58,7.49-33.92-3.42-66.61-6.71-73.54-25.54-2.25-6.12-2.31-15.33-.44-23.34.49-2.08,2.59-10.44,9.25-18.94,10.16-12.97,24.01-17.44,31.71-19.82Z"/>
      <path id="stone_3" class="cls-4" d="M167.37,366.99c-8.02,4.62-12.52,10.16-18.94,18.05-5.78,7.11-8.67,10.67-10.57,16.29-1.24,3.66-4.78,14.12.44,22.9,3.35,5.63,8.7,7.87,14.09,10.13,2.36.99,8.21,3.22,29.94,3.96,2.67.09,11.28.35,23.78,0,12.75-.36,19.13-.54,22.02-1.32,4.07-1.1,7.87-2.83,30.39-23.78,14.28-13.28,18.25-17.69,17.61-23.34-.38-3.38-2.28-6.09-5.72-11.01-2.86-4.08-6.21-8.86-11.45-11.45-3.98-1.97-5.84-1.09-17.61-.88-17.98.31-17.71-1.68-29.06-.44-4.83.53-7.25,1.14-11.45.44-6.89-1.15-8.45-4.15-13.65-5.28-7.16-1.56-13.52,2.1-19.82,5.72Z"/>
      <path id="stone2" class="cls-6" d="M216.25,446.25c2.89,5.49,8.58,8.7,11.89,10.57,8.44,4.76,16.53,5.14,20.7,5.28,24.83.88,39.78-.72,59.89-.88,0,0,27.18-.21,48-7.05,1.18-.39,4.01-1.36,6.17-3.96,4.12-4.97,2.76-12.22,1.32-19.38-.76-3.79-3.52-15.87-13.21-29.06-4.71-6.41-7.64-10.27-12.77-11.45-4.17-.95-6.34.66-14.09,1.32-5.46.47-6.67-.14-14.97-.44-18.69-.68-21.02,2.07-30.83-.44-8.03-2.05-7.24-4.1-12.77-4.84-13.57-1.83-25.56,9.52-30.39,14.09-10.85,10.27-26.45,31.96-18.94,46.24Z"/>
    </g>
  </g>
</svg>