<?xml version="1.0" encoding="UTF-8"?>
<svg id="Layer_2" xmlns="http://www.w3.org/2000/svg" viewBox="0 0 234.2 106.71">
  <defs>
    <style>
      .cls-1 {
        fill: #fff;
      }

      .cls-2 {
        fill: #c7704c;
      }

      .cls-3 {
        fill: #1a1a1a;
      }

      .cls-4 {
        fill: #df9942;
      }
    </style>
  </defs>
  <g id="fish">
    <g id="fish_13">
      <path class="cls-2" d="M165.58,10.78c-2.38-1.22-4.49.14-8.32.46-1.54.13-3.04-.06-6.05-.44-8.28-1.04-27.64-6.59-31.39-7.62C106.27-.52,95.34-.19,80.5.29c-13.51.44-19.34,2.14-22.17,3.08-6.61,2.19-13.45,5.17-19.37,10.64-2.41,2.22-3.61,3.34-4.35,5.16-2.41,5.93,2.42,11.45,9.13,23.47.9,1.61,16.17,29.31,12.37,38.25-.26.61-1.33,2.83-.65,5.24.63,2.22,2.42,3.51,3.69,4.39,5.26,3.64,9.76,5.79,13.8,7.8,3.81,1.89,7.43,3.77,11.82,3.81.47,0,2.95,0,3.34-1.06.37-1-1.41-2.05-1.04-3.58.19-.78.88-1.45,1.59-1.64,1.52-.41,3.19,1.33,4,2.12,0,0,1.85,1.8,9.62,6.09,5.87,3.23,12.09,2.67,14.14,2.49,4.15-.38,11.11-1.01,14.42-6.4,3.74-6.09.07-13.74-.24-14.37-.79-1.58-2.62-3.59-6.25-7.55-6.01-6.55-6.53-6.32-6.74-7.5-.86-4.76,7.65-7.77,22.16-20.92,4.77-4.32,8.59-7.82,12.68-13.22,2.92-3.86,3.33-5.19,7.97-11.34,1.5-1.99,2.72-4.18,4.16-6.21,2.15-3.01,3.52-4.66,2.97-6.3-.38-1.15-1.52-1.73-1.97-1.97Z"/>
      <path class="cls-4" d="M.23,59.65c1.19,7.63,6.67,12.57,9.56,15.18,2.81,2.53,7.58,6.02,19.74,9.37,6.63,1.83,16.39,4.43,30.74,4.22,20.57-.31,37.1-6.24,50.45-11.02,8.94-3.2,18.1-5.79,27.06-8.91,0,0,6.7-2.33,15.84-3.59,4.12-.56,6.85-.65,9.83-.13,4.56.8,7.78,2.69,9.52,3.74,8.85,5.37,34.5,22.73,39.54,25.88.51.32,1.91,1.17,3.84,1.3,2.23.15,5.2-.68,6.59-2.7.73-1.05,1.48-3.09-1.78-11.61-2.35-6.16-4.81-10.51-5.02-10.89-6.27-10.99-9.82-12.53-9.34-16.56.27-2.29,1.55-2.93,8.68-9.17,0,0,12.8-11.2,18.09-22.35.37-.79.99-2.22.38-3.24-.91-1.53-3.99-1.28-5.54-1.11-14.26,1.54-24.66,6.18-24.66,6.18-12.91,5.76-13.01,6.88-21.77,10.05-8.79,3.17-13.24,3.69-17.34,3.4-5.82-.4-10-2.35-12.96-3.73-9.75-4.53-19.64-8.77-29.3-13.48-16.71-8.14-32.62-8.4-44.51-8.59-9.6-.16-25.34-.25-43.24,7.26-16.8,7.05-24.15,16.04-25.79,18.12C4.93,42.22-1.27,50.07.23,59.65Z"/>
      <path class="cls-2" d="M51.17,44.6c-.16,2.03,1.09,2.51,1.94,5.26,1.12,3.63.32,7.21.23,7.6-.55,2.34-1.45,3.3-.97,5.09.07.25.45,1.6,1.67,2.55,1.02.79,2.01.82,3.71,1.04,2.61.34,1.21.4,6.16,1.22,1.99.33,3.63.6,5.81.83,4.18.44,6.27.66,7.89.17,3.25-.98,5.09-3.67,6.02-5.04,4.71-6.91,2.28-15.38,1.59-17.77-.85-2.98-2.07-7.22-5.82-9.2-2.1-1.11-4.39-1.19-5.49-1.24-1.14-.04-2.04.05-7.25,1.24-2.71.62-4.68,1.1-7.04,1.73-4.56,1.23-5.66,1.73-6.67,2.8-.38.41-1.65,1.76-1.8,3.71Z"/>
      <path class="cls-1" d="M21.82,34.29c-.32.15-1.97.95-3.38,2.78-.62.8-1.89,2.44-1.99,4.83-.12,3.16,1.9,5.32,2.37,5.83,2.15,2.3,4.83,2.68,5.79,2.8,1.09.14,3.38.43,5.62-.93,2.67-1.63,3.36-4.47,3.59-5.38.16-.65,1.19-4.86-1.57-8.01-1.92-2.19-4.53-2.57-5.28-2.67-.92-.13-2.95-.28-5.15.76Z"/>
      <path class="cls-3" d="M21.77,45.5c.34.07,1.48.25,2.6-.41,1.8-1.06,1.83-3.27,1.83-3.46,0-.4-.06-2.08-1.46-3.16-.19-.15-1.32-.99-2.85-.73-1.38.23-2.14,1.21-2.36,1.49-.12.16-.73.99-.8,2.24-.02.36-.06,1.34.57,2.34.85,1.35,2.26,1.65,2.46,1.69Z"/>
    </g>
  </g>
</svg>